<svg width="323" height="298" viewBox="0 0 323 298" fill="none" xmlns="http://www.w3.org/2000/svg">
<rect x="83.375" y="0.375" width="239.25" height="255.75" rx="11.625" fill="#151515"/>
<rect x="83.375" y="0.375" width="239.25" height="255.75" rx="11.625" stroke="url(#paint0_linear_4749_9604)" stroke-width="0.75"/>
<g clip-path="url(#clip0_4749_9604)">
<path d="M221.083 22.8677C219.072 19.1084 216.662 17.2031 213.922 17.2031C210.769 17.2031 207.494 19.78 204.186 24.8658C203.775 25.4998 203.379 26.1433 202.999 26.7959C202.62 26.1429 202.225 25.4993 201.815 24.8658C198.506 19.78 195.231 17.2031 192.076 17.2031C189.336 17.2031 186.928 19.1084 184.92 22.8677C183.416 25.6815 183.958 27.7023 184.677 28.9012C185.972 31.062 188.868 32.5184 193.53 33.3504C197.11 33.991 200.898 34.0858 202.838 34.0858H203.162C205.1 34.0858 208.888 33.991 212.47 33.3504C217.132 32.5182 220.028 31.062 221.324 28.9012C222.042 27.7023 222.584 25.6814 221.083 22.8677Z" fill="#545454"/>
<path d="M232.531 41.5617C232.531 40.0065 231.273 38.75 229.719 38.75H176.284C174.731 38.75 173.471 40.0065 173.471 41.5617V80.4849C173.471 82.0381 174.731 83.2966 176.284 83.2966H229.719C231.273 83.2966 232.531 82.0381 232.531 80.4849V41.5617Z" fill="#0D0D0D"/>
<path d="M236.75 43.9243C236.75 45.4773 235.491 46.734 233.938 46.734H172.066C170.513 46.734 169.252 45.4775 169.252 43.9243V32.6733C169.252 31.1201 170.513 29.8594 172.066 29.8594H233.938C235.491 29.8594 236.75 31.12 236.75 32.6733V43.9243Z" fill="#2C2C2C"/>
<path d="M195.971 29.8594H210.034V46.7338H195.971V29.8594Z" fill="#545454"/>
<path opacity="0.1" d="M173.471 49.5174L232.531 54.8874V46.8252H173.471V49.5174Z" fill="#2C2C2C"/>
<path d="M208.86 51.7734C206.564 51.7734 204.489 52.7167 203 54.2371C201.511 52.7169 199.436 51.7734 197.142 51.7734C192.612 51.7734 188.939 55.446 188.939 59.9757C188.939 69.3502 203 77.5546 203 77.5546C203 77.5546 217.063 69.3503 217.063 59.9757C217.063 55.446 213.39 51.7734 208.86 51.7734Z" fill="#2C2C2C"/>
<path opacity="0.1" d="M208.861 51.7734C208.389 51.773 207.919 51.8137 207.454 51.895C211.314 52.5602 214.252 55.926 214.252 59.9757C214.252 67.515 205.155 74.296 201.596 76.6628C202.463 77.2395 203.001 77.5546 203.001 77.5546C203.001 77.5546 217.063 69.3503 217.063 59.9757C217.063 55.446 213.391 51.7734 208.861 51.7734Z" fill="#2C2C2C"/>
</g>
<path d="M130.238 109.144C129.87 109.144 129.494 109.088 129.11 108.976C128.734 108.856 128.386 108.68 128.066 108.448C127.746 108.208 127.502 107.908 127.334 107.548L128.57 107.092C128.778 107.388 129.022 107.604 129.302 107.74C129.582 107.868 129.87 107.932 130.166 107.932C130.638 107.932 131.022 107.792 131.318 107.512C131.614 107.224 131.762 106.844 131.762 106.372C131.762 105.916 131.618 105.54 131.33 105.244C131.042 104.948 130.666 104.8 130.202 104.8C129.93 104.8 129.674 104.86 129.434 104.98C129.202 105.1 129.022 105.244 128.894 105.412L127.634 105.136L128.102 100.6H132.746V101.86H129.302L129.062 104.14C129.278 104.012 129.518 103.912 129.782 103.84C130.054 103.76 130.338 103.72 130.634 103.72C131.114 103.72 131.546 103.832 131.93 104.056C132.314 104.28 132.618 104.588 132.842 104.98C133.066 105.364 133.178 105.808 133.178 106.312C133.178 106.872 133.05 107.364 132.794 107.788C132.546 108.212 132.202 108.544 131.762 108.784C131.322 109.024 130.814 109.144 130.238 109.144ZM137.536 109.144C136.88 109.144 136.296 108.96 135.784 108.592C135.272 108.216 134.868 107.704 134.572 107.056C134.284 106.4 134.14 105.648 134.14 104.8C134.14 103.952 134.284 103.204 134.572 102.556C134.868 101.9 135.268 101.388 135.772 101.02C136.284 100.644 136.872 100.456 137.536 100.456C138.2 100.456 138.788 100.644 139.3 101.02C139.812 101.388 140.212 101.9 140.5 102.556C140.796 103.204 140.944 103.952 140.944 104.8C140.944 105.648 140.796 106.4 140.5 107.056C140.212 107.704 139.812 108.216 139.3 108.592C138.796 108.96 138.208 109.144 137.536 109.144ZM137.548 107.884C137.94 107.884 138.288 107.752 138.592 107.488C138.904 107.224 139.144 106.86 139.312 106.396C139.488 105.932 139.576 105.4 139.576 104.8C139.576 104.2 139.488 103.668 139.312 103.204C139.144 102.732 138.904 102.364 138.592 102.1C138.288 101.836 137.936 101.704 137.536 101.704C137.136 101.704 136.784 101.836 136.48 102.1C136.176 102.364 135.936 102.728 135.76 103.192C135.592 103.656 135.508 104.192 135.508 104.8C135.508 105.4 135.592 105.932 135.76 106.396C135.936 106.86 136.176 107.224 136.48 107.488C136.792 107.752 137.148 107.884 137.548 107.884ZM142.522 109L148.486 100.6H149.878L143.878 109H142.522ZM148.594 109.192C148.218 109.192 147.886 109.104 147.598 108.928C147.31 108.752 147.082 108.508 146.914 108.196C146.754 107.884 146.674 107.532 146.674 107.14C146.674 106.74 146.754 106.388 146.914 106.084C147.074 105.78 147.298 105.54 147.586 105.364C147.882 105.188 148.218 105.1 148.594 105.1C148.97 105.1 149.302 105.188 149.59 105.364C149.878 105.54 150.102 105.78 150.262 106.084C150.43 106.388 150.514 106.74 150.514 107.14C150.514 107.532 150.43 107.884 150.262 108.196C150.102 108.508 149.878 108.752 149.59 108.928C149.302 109.104 148.97 109.192 148.594 109.192ZM148.594 108.244C148.858 108.244 149.074 108.14 149.242 107.932C149.41 107.724 149.494 107.46 149.494 107.14C149.494 106.828 149.41 106.568 149.242 106.36C149.074 106.144 148.858 106.036 148.594 106.036C148.33 106.036 148.11 106.144 147.934 106.36C147.766 106.568 147.682 106.828 147.682 107.14C147.682 107.46 147.766 107.724 147.934 107.932C148.11 108.14 148.33 108.244 148.594 108.244ZM143.842 104.5C143.474 104.5 143.142 104.412 142.846 104.236C142.558 104.06 142.334 103.816 142.174 103.504C142.014 103.192 141.934 102.84 141.934 102.448C141.934 102.048 142.014 101.696 142.174 101.392C142.334 101.088 142.558 100.848 142.846 100.672C143.142 100.496 143.478 100.408 143.854 100.408C144.23 100.408 144.562 100.496 144.85 100.672C145.138 100.848 145.362 101.088 145.522 101.392C145.682 101.696 145.762 102.048 145.762 102.448C145.762 102.84 145.682 103.192 145.522 103.504C145.362 103.816 145.134 104.06 144.838 104.236C144.55 104.412 144.218 104.5 143.842 104.5ZM143.842 103.552C144.114 103.552 144.334 103.448 144.502 103.24C144.67 103.032 144.754 102.768 144.754 102.448C144.754 102.136 144.67 101.876 144.502 101.668C144.334 101.46 144.114 101.356 143.842 101.356C143.578 101.356 143.362 101.46 143.194 101.668C143.026 101.876 142.942 102.136 142.942 102.448C142.942 102.768 143.026 103.032 143.194 103.24C143.362 103.448 143.578 103.552 143.842 103.552ZM157.426 109.144C156.826 109.144 156.29 109.012 155.818 108.748C155.354 108.476 154.99 108.104 154.726 107.632C154.462 107.16 154.33 106.616 154.33 106C154.33 105.384 154.458 104.84 154.714 104.368C154.978 103.896 155.342 103.528 155.806 103.264C156.27 102.992 156.802 102.856 157.402 102.856C158.002 102.856 158.534 102.992 158.998 103.264C159.462 103.528 159.822 103.896 160.078 104.368C160.342 104.84 160.474 105.384 160.474 106C160.474 106.616 160.346 107.16 160.09 107.632C159.834 108.104 159.474 108.476 159.01 108.748C158.546 109.012 158.018 109.144 157.426 109.144ZM157.426 107.908C157.754 107.908 158.046 107.828 158.302 107.668C158.558 107.5 158.758 107.276 158.902 106.996C159.046 106.708 159.118 106.376 159.118 106C159.118 105.624 159.042 105.296 158.89 105.016C158.746 104.728 158.546 104.504 158.29 104.344C158.034 104.176 157.738 104.092 157.402 104.092C157.066 104.092 156.77 104.172 156.514 104.332C156.258 104.492 156.058 104.716 155.914 105.004C155.77 105.292 155.698 105.624 155.698 106C155.698 106.376 155.77 106.708 155.914 106.996C156.066 107.276 156.27 107.5 156.526 107.668C156.79 107.828 157.09 107.908 157.426 107.908ZM162.239 109V102.364C162.239 101.732 162.395 101.248 162.707 100.912C163.027 100.568 163.507 100.396 164.147 100.396C164.355 100.396 164.575 100.432 164.807 100.504C165.047 100.568 165.275 100.656 165.491 100.768L164.999 101.764C164.847 101.692 164.711 101.64 164.591 101.608C164.479 101.576 164.379 101.56 164.291 101.56C164.051 101.56 163.871 101.64 163.751 101.8C163.639 101.952 163.583 102.204 163.583 102.556V109H162.239ZM161.207 104.104V103H165.155V104.104H161.207ZM166.844 109V102.364C166.844 101.732 167 101.248 167.312 100.912C167.632 100.568 168.112 100.396 168.752 100.396C168.96 100.396 169.18 100.432 169.412 100.504C169.652 100.568 169.88 100.656 170.096 100.768L169.604 101.764C169.452 101.692 169.316 101.64 169.196 101.608C169.084 101.576 168.984 101.56 168.896 101.56C168.656 101.56 168.476 101.64 168.356 101.8C168.244 101.952 168.188 102.204 168.188 102.556V109H166.844ZM165.812 104.104V103H169.76V104.104H165.812ZM176.504 109.144C175.904 109.144 175.368 109.012 174.896 108.748C174.432 108.476 174.068 108.104 173.804 107.632C173.54 107.16 173.408 106.616 173.408 106C173.408 105.384 173.536 104.84 173.792 104.368C174.056 103.896 174.42 103.528 174.884 103.264C175.348 102.992 175.88 102.856 176.48 102.856C177.08 102.856 177.612 102.992 178.076 103.264C178.54 103.528 178.9 103.896 179.156 104.368C179.42 104.84 179.552 105.384 179.552 106C179.552 106.616 179.424 107.16 179.168 107.632C178.912 108.104 178.552 108.476 178.088 108.748C177.624 109.012 177.096 109.144 176.504 109.144ZM176.504 107.908C176.832 107.908 177.124 107.828 177.38 107.668C177.636 107.5 177.836 107.276 177.98 106.996C178.124 106.708 178.196 106.376 178.196 106C178.196 105.624 178.12 105.296 177.968 105.016C177.824 104.728 177.624 104.504 177.368 104.344C177.112 104.176 176.816 104.092 176.48 104.092C176.144 104.092 175.848 104.172 175.592 104.332C175.336 104.492 175.136 104.716 174.992 105.004C174.848 105.292 174.776 105.624 174.776 106C174.776 106.376 174.848 106.708 174.992 106.996C175.144 107.276 175.348 107.5 175.604 107.668C175.868 107.828 176.168 107.908 176.504 107.908ZM180.717 109V103H181.977L182.061 104.104V109H180.717ZM184.785 109V105.928H186.129V109H184.785ZM184.785 105.928C184.785 105.448 184.729 105.08 184.617 104.824C184.513 104.56 184.361 104.376 184.161 104.272C183.969 104.168 183.741 104.116 183.477 104.116C183.029 104.108 182.681 104.256 182.433 104.56C182.185 104.864 182.061 105.3 182.061 105.868H181.557C181.557 105.236 181.649 104.696 181.833 104.248C182.017 103.792 182.281 103.448 182.625 103.216C182.969 102.976 183.377 102.856 183.849 102.856C184.329 102.856 184.737 102.952 185.073 103.144C185.417 103.336 185.677 103.636 185.853 104.044C186.037 104.444 186.129 104.968 186.129 105.616V105.928H184.785ZM190.385 109V100.6H191.729V109H190.385ZM193.305 109V103H194.637V109H193.305ZM193.977 101.86C193.761 101.86 193.573 101.784 193.413 101.632C193.261 101.472 193.185 101.284 193.185 101.068C193.185 100.852 193.261 100.668 193.413 100.516C193.573 100.364 193.761 100.288 193.977 100.288C194.193 100.288 194.377 100.364 194.529 100.516C194.689 100.668 194.769 100.852 194.769 101.068C194.769 101.284 194.689 101.472 194.529 101.632C194.377 101.784 194.193 101.86 193.977 101.86ZM196.221 109V103H197.481L197.541 103.804C197.725 103.492 197.961 103.256 198.249 103.096C198.537 102.936 198.865 102.856 199.233 102.856C199.713 102.856 200.121 102.964 200.457 103.18C200.793 103.396 201.037 103.724 201.189 104.164C201.365 103.74 201.613 103.416 201.933 103.192C202.253 102.968 202.629 102.856 203.061 102.856C203.757 102.856 204.293 103.08 204.669 103.528C205.045 103.968 205.229 104.648 205.221 105.568V109H203.889V105.928C203.889 105.448 203.837 105.08 203.733 104.824C203.629 104.56 203.489 104.376 203.313 104.272C203.137 104.168 202.933 104.116 202.701 104.116C202.285 104.108 201.961 104.256 201.729 104.56C201.505 104.864 201.393 105.3 201.393 105.868V109H200.049V105.928C200.049 105.448 199.997 105.08 199.893 104.824C199.797 104.56 199.661 104.376 199.485 104.272C199.309 104.168 199.105 104.116 198.873 104.116C198.457 104.108 198.133 104.256 197.901 104.56C197.677 104.864 197.565 105.3 197.565 105.868V109H196.221ZM206.676 109V103H208.008V109H206.676ZM207.348 101.86C207.132 101.86 206.944 101.784 206.784 101.632C206.632 101.472 206.556 101.284 206.556 101.068C206.556 100.852 206.632 100.668 206.784 100.516C206.944 100.364 207.132 100.288 207.348 100.288C207.564 100.288 207.748 100.364 207.9 100.516C208.06 100.668 208.14 100.852 208.14 101.068C208.14 101.284 208.06 101.472 207.9 101.632C207.748 101.784 207.564 101.86 207.348 101.86ZM211.98 109.144C211.348 109.144 210.864 108.988 210.528 108.676C210.2 108.356 210.036 107.9 210.036 107.308V101.128H211.368V107.056C211.368 107.336 211.432 107.548 211.56 107.692C211.696 107.836 211.892 107.908 212.148 107.908C212.228 107.908 212.316 107.892 212.412 107.86C212.508 107.828 212.616 107.768 212.736 107.68L213.228 108.7C213.02 108.844 212.812 108.952 212.604 109.024C212.396 109.104 212.188 109.144 211.98 109.144ZM209.04 104.152V103H212.988V104.152H209.04ZM216.908 109.144C216.324 109.144 215.804 109.012 215.348 108.748C214.9 108.476 214.544 108.104 214.28 107.632C214.024 107.16 213.896 106.616 213.896 106C213.896 105.384 214.028 104.84 214.292 104.368C214.556 103.896 214.916 103.528 215.372 103.264C215.836 102.992 216.364 102.856 216.956 102.856C217.492 102.856 217.976 102.996 218.408 103.276C218.84 103.548 219.18 103.944 219.428 104.464C219.684 104.984 219.812 105.604 219.812 106.324H215.096L215.276 106.156C215.276 106.524 215.356 106.844 215.516 107.116C215.676 107.38 215.888 107.584 216.152 107.728C216.416 107.872 216.708 107.944 217.028 107.944C217.396 107.944 217.7 107.864 217.94 107.704C218.18 107.536 218.368 107.32 218.504 107.056L219.692 107.56C219.524 107.88 219.308 108.16 219.044 108.4C218.788 108.64 218.48 108.824 218.12 108.952C217.768 109.08 217.364 109.144 216.908 109.144ZM215.36 105.46L215.168 105.292H218.552L218.372 105.46C218.372 105.132 218.3 104.864 218.156 104.656C218.012 104.44 217.828 104.28 217.604 104.176C217.388 104.064 217.16 104.008 216.92 104.008C216.68 104.008 216.44 104.064 216.2 104.176C215.96 104.28 215.76 104.44 215.6 104.656C215.44 104.864 215.36 105.132 215.36 105.46ZM225.174 109L225.114 107.884V100.6H226.446V109H225.174ZM223.218 109.144C222.674 109.144 222.198 109.016 221.79 108.76C221.39 108.496 221.074 108.128 220.842 107.656C220.618 107.184 220.506 106.632 220.506 106C220.506 105.36 220.618 104.808 220.842 104.344C221.074 103.872 221.39 103.508 221.79 103.252C222.198 102.988 222.674 102.856 223.218 102.856C223.722 102.856 224.154 102.988 224.514 103.252C224.882 103.508 225.162 103.872 225.354 104.344C225.546 104.808 225.642 105.36 225.642 106C225.642 106.632 225.546 107.184 225.354 107.656C225.162 108.128 224.882 108.496 224.514 108.76C224.154 109.016 223.722 109.144 223.218 109.144ZM223.554 107.92C223.858 107.92 224.126 107.84 224.358 107.68C224.598 107.512 224.782 107.284 224.91 106.996C225.046 106.708 225.114 106.376 225.114 106C225.114 105.624 225.046 105.292 224.91 105.004C224.782 104.716 224.598 104.492 224.358 104.332C224.126 104.172 223.854 104.092 223.542 104.092C223.222 104.092 222.938 104.172 222.69 104.332C222.442 104.492 222.246 104.716 222.102 105.004C221.966 105.292 221.894 105.624 221.886 106C221.894 106.376 221.966 106.708 222.102 106.996C222.246 107.284 222.442 107.512 222.69 107.68C222.946 107.84 223.234 107.92 223.554 107.92ZM230.886 111.4V103L232.146 103L232.23 104.104V111.4H230.886ZM234.126 109.144C233.622 109.144 233.186 109.016 232.818 108.76C232.458 108.496 232.182 108.128 231.99 107.656C231.798 107.184 231.702 106.632 231.702 106C231.702 105.36 231.798 104.808 231.99 104.344C232.182 103.872 232.458 103.508 232.818 103.252C233.186 102.988 233.622 102.856 234.126 102.856C234.67 102.856 235.142 102.988 235.542 103.252C235.95 103.508 236.266 103.872 236.49 104.344C236.722 104.808 236.838 105.36 236.838 106C236.838 106.632 236.722 107.184 236.49 107.656C236.266 108.128 235.95 108.496 235.542 108.76C235.142 109.016 234.67 109.144 234.126 109.144ZM233.79 107.92C234.11 107.92 234.394 107.84 234.642 107.68C234.89 107.512 235.086 107.284 235.23 106.996C235.382 106.708 235.458 106.376 235.458 106C235.458 105.624 235.386 105.292 235.242 105.004C235.106 104.716 234.914 104.492 234.666 104.332C234.418 104.172 234.13 104.092 233.802 104.092C233.498 104.092 233.226 104.172 232.986 104.332C232.746 104.492 232.558 104.716 232.422 105.004C232.294 105.292 232.23 105.624 232.23 106C232.23 106.376 232.294 106.708 232.422 106.996C232.558 107.284 232.742 107.512 232.974 107.68C233.214 107.84 233.486 107.92 233.79 107.92ZM238.874 105.808C238.874 105.16 238.998 104.628 239.246 104.212C239.494 103.796 239.814 103.488 240.206 103.288C240.606 103.08 241.022 102.976 241.454 102.976V104.26C241.086 104.26 240.738 104.312 240.41 104.416C240.09 104.512 239.83 104.672 239.63 104.896C239.43 105.12 239.33 105.416 239.33 105.784L238.874 105.808ZM237.986 109V103H239.33V109L237.986 109ZM245.106 109.144C244.506 109.144 243.97 109.012 243.498 108.748C243.034 108.476 242.67 108.104 242.406 107.632C242.142 107.16 242.01 106.616 242.01 106C242.01 105.384 242.138 104.84 242.394 104.368C242.658 103.896 243.022 103.528 243.486 103.264C243.95 102.992 244.482 102.856 245.082 102.856C245.682 102.856 246.214 102.992 246.678 103.264C247.142 103.528 247.502 103.896 247.758 104.368C248.022 104.84 248.154 105.384 248.154 106C248.154 106.616 248.026 107.16 247.77 107.632C247.514 108.104 247.154 108.476 246.69 108.748C246.226 109.012 245.698 109.144 245.106 109.144ZM245.106 107.908C245.434 107.908 245.726 107.828 245.982 107.668C246.238 107.5 246.438 107.276 246.582 106.996C246.726 106.708 246.798 106.376 246.798 106C246.798 105.624 246.722 105.296 246.57 105.016C246.426 104.728 246.226 104.504 245.97 104.344C245.714 104.176 245.418 104.092 245.082 104.092C244.746 104.092 244.45 104.172 244.194 104.332C243.938 104.492 243.738 104.716 243.594 105.004C243.45 105.292 243.378 105.624 243.378 106C243.378 106.376 243.45 106.708 243.594 106.996C243.746 107.276 243.95 107.5 244.206 107.668C244.47 107.828 244.77 107.908 245.106 107.908ZM253.65 109L253.59 107.884V100.6H254.922V109H253.65ZM251.694 109.144C251.15 109.144 250.674 109.016 250.266 108.76C249.866 108.496 249.55 108.128 249.318 107.656C249.094 107.184 248.982 106.632 248.982 106C248.982 105.36 249.094 104.808 249.318 104.344C249.55 103.872 249.866 103.508 250.266 103.252C250.674 102.988 251.15 102.856 251.694 102.856C252.198 102.856 252.63 102.988 252.99 103.252C253.358 103.508 253.638 103.872 253.83 104.344C254.022 104.808 254.118 105.36 254.118 106C254.118 106.632 254.022 107.184 253.83 107.656C253.638 108.128 253.358 108.496 252.99 108.76C252.63 109.016 252.198 109.144 251.694 109.144ZM252.03 107.92C252.334 107.92 252.602 107.84 252.834 107.68C253.074 107.512 253.258 107.284 253.386 106.996C253.522 106.708 253.59 106.376 253.59 106C253.59 105.624 253.522 105.292 253.386 105.004C253.258 104.716 253.074 104.492 252.834 104.332C252.602 104.172 252.33 104.092 252.018 104.092C251.698 104.092 251.414 104.172 251.166 104.332C250.918 104.492 250.722 104.716 250.578 105.004C250.442 105.292 250.37 105.624 250.362 106C250.37 106.376 250.442 106.708 250.578 106.996C250.722 107.284 250.918 107.512 251.166 107.68C251.422 107.84 251.71 107.92 252.03 107.92ZM260.428 109L260.356 107.896V103H261.688V109H260.428ZM256.276 106.072V103H257.62V106.072H256.276ZM257.62 106.072C257.62 106.544 257.676 106.912 257.788 107.176C257.9 107.44 258.052 107.624 258.244 107.728C258.444 107.832 258.672 107.884 258.928 107.884C259.384 107.892 259.736 107.744 259.984 107.44C260.232 107.136 260.356 106.7 260.356 106.132H260.86C260.86 106.764 260.764 107.308 260.572 107.764C260.388 108.212 260.124 108.556 259.78 108.796C259.444 109.028 259.036 109.144 258.556 109.144C258.084 109.144 257.676 109.048 257.332 108.856C256.996 108.664 256.736 108.364 256.552 107.956C256.368 107.548 256.276 107.024 256.276 106.384V106.072H257.62ZM265.99 109.144C265.374 109.144 264.83 109.012 264.358 108.748C263.886 108.476 263.514 108.104 263.242 107.632C262.978 107.16 262.846 106.616 262.846 106C262.846 105.384 262.978 104.84 263.242 104.368C263.514 103.896 263.882 103.528 264.346 103.264C264.818 102.992 265.358 102.856 265.965 102.856C266.558 102.856 267.094 103 267.574 103.288C268.054 103.568 268.41 103.972 268.642 104.5L267.394 104.98C267.266 104.716 267.07 104.504 266.806 104.344C266.542 104.184 266.242 104.104 265.906 104.104C265.578 104.104 265.286 104.188 265.03 104.356C264.774 104.516 264.574 104.74 264.43 105.028C264.286 105.308 264.214 105.632 264.214 106C264.214 106.368 264.286 106.696 264.43 106.984C264.582 107.264 264.786 107.488 265.042 107.656C265.306 107.816 265.602 107.896 265.93 107.896C266.266 107.896 266.566 107.812 266.83 107.644C267.094 107.468 267.29 107.232 267.418 106.936L268.666 107.416C268.434 107.96 268.078 108.384 267.598 108.688C267.126 108.992 266.59 109.144 265.99 109.144ZM272.097 109.144C271.465 109.144 270.981 108.988 270.645 108.676C270.317 108.356 270.153 107.9 270.153 107.308V101.128H271.485V107.056C271.485 107.336 271.549 107.548 271.677 107.692C271.813 107.836 272.009 107.908 272.265 107.908C272.345 107.908 272.433 107.892 272.529 107.86C272.625 107.828 272.733 107.768 272.853 107.68L273.345 108.7C273.137 108.844 272.929 108.952 272.721 109.024C272.513 109.104 272.305 109.144 272.097 109.144ZM269.157 104.152V103H273.105V104.152H269.157ZM276.604 109.144C276.204 109.144 275.836 109.084 275.5 108.964C275.164 108.844 274.876 108.676 274.636 108.46C274.396 108.236 274.212 107.976 274.084 107.68L275.248 107.164C275.368 107.388 275.544 107.576 275.776 107.728C276.016 107.88 276.28 107.956 276.568 107.956C276.88 107.956 277.128 107.904 277.312 107.8C277.504 107.688 277.6 107.536 277.6 107.344C277.6 107.16 277.528 107.02 277.384 106.924C277.24 106.82 277.036 106.736 276.772 106.672L276.208 106.516C275.64 106.372 275.196 106.144 274.876 105.832C274.556 105.512 274.396 105.148 274.396 104.74C274.396 104.14 274.588 103.676 274.972 103.348C275.364 103.02 275.924 102.856 276.652 102.856C277.02 102.856 277.356 102.912 277.66 103.024C277.972 103.128 278.24 103.28 278.464 103.48C278.688 103.672 278.844 103.9 278.932 104.164L277.816 104.668C277.736 104.468 277.584 104.316 277.36 104.212C277.136 104.1 276.888 104.044 276.616 104.044C276.344 104.044 276.132 104.104 275.98 104.224C275.828 104.336 275.752 104.496 275.752 104.704C275.752 104.824 275.82 104.936 275.956 105.04C276.092 105.136 276.288 105.216 276.544 105.28L277.252 105.448C277.644 105.544 277.964 105.696 278.212 105.904C278.46 106.104 278.644 106.332 278.764 106.588C278.884 106.836 278.944 107.088 278.944 107.344C278.944 107.704 278.84 108.02 278.632 108.292C278.432 108.564 278.156 108.776 277.804 108.928C277.452 109.072 277.052 109.144 276.604 109.144Z" fill="white"/>
<path d="M154.393 124.09C153.858 124.09 153.386 123.975 152.976 123.745C152.566 123.51 152.243 123.19 152.008 122.785C151.778 122.375 151.663 121.907 151.663 121.382C151.663 120.847 151.778 120.377 152.008 119.972C152.243 119.562 152.566 119.242 152.976 119.012C153.386 118.777 153.858 118.66 154.393 118.66C154.673 118.66 154.946 118.707 155.211 118.802C155.476 118.892 155.718 119.017 155.938 119.177C156.158 119.337 156.336 119.52 156.471 119.725L155.968 120.07C155.868 119.91 155.733 119.767 155.563 119.642C155.393 119.512 155.206 119.412 155.001 119.342C154.801 119.272 154.598 119.237 154.393 119.237C153.988 119.237 153.628 119.33 153.313 119.515C152.998 119.695 152.751 119.945 152.571 120.265C152.391 120.585 152.301 120.957 152.301 121.382C152.301 121.792 152.388 122.16 152.563 122.485C152.743 122.805 152.991 123.057 153.306 123.242C153.626 123.427 153.988 123.52 154.393 123.52C154.733 123.52 155.033 123.45 155.293 123.31C155.558 123.165 155.766 122.967 155.916 122.717C156.066 122.462 156.141 122.17 156.141 121.84L156.748 121.795C156.748 122.255 156.648 122.657 156.448 123.002C156.248 123.342 155.971 123.61 155.616 123.805C155.261 123.995 154.853 124.09 154.393 124.09ZM154.851 121.87V121.322H156.748V121.817L156.448 121.87H154.851ZM157.797 121.967C157.797 121.562 157.874 121.235 158.029 120.985C158.184 120.73 158.382 120.542 158.622 120.422C158.867 120.297 159.124 120.235 159.394 120.235V120.797C159.174 120.797 158.962 120.835 158.757 120.91C158.557 120.98 158.392 121.097 158.262 121.262C158.132 121.427 158.067 121.652 158.067 121.937L157.797 121.967ZM157.467 124V120.25H158.067V124H157.467ZM162.236 124L162.206 123.385V122.02C162.206 121.725 162.173 121.482 162.108 121.292C162.043 121.097 161.941 120.95 161.801 120.85C161.661 120.75 161.478 120.7 161.253 120.7C161.048 120.7 160.871 120.742 160.721 120.827C160.576 120.907 160.456 121.037 160.361 121.217L159.821 121.007C159.916 120.832 160.031 120.682 160.166 120.557C160.301 120.427 160.458 120.33 160.638 120.265C160.818 120.195 161.023 120.16 161.253 120.16C161.603 120.16 161.891 120.23 162.116 120.37C162.346 120.505 162.518 120.707 162.633 120.977C162.748 121.242 162.803 121.572 162.798 121.967L162.791 124H162.236ZM161.111 124.09C160.671 124.09 160.326 123.99 160.076 123.79C159.831 123.585 159.708 123.302 159.708 122.942C159.708 122.562 159.833 122.272 160.083 122.073C160.338 121.867 160.693 121.765 161.148 121.765H162.221V122.267H161.283C160.933 122.267 160.683 122.325 160.533 122.44C160.388 122.555 160.316 122.72 160.316 122.935C160.316 123.13 160.388 123.285 160.533 123.4C160.678 123.51 160.881 123.565 161.141 123.565C161.356 123.565 161.543 123.52 161.703 123.43C161.863 123.335 161.986 123.202 162.071 123.032C162.161 122.857 162.206 122.652 162.206 122.417H162.461C162.461 122.927 162.346 123.335 162.116 123.64C161.886 123.94 161.551 124.09 161.111 124.09ZM163.674 124V118.75H164.274V123.302L164.244 124H163.674ZM165.541 124.09C165.226 124.09 164.949 124.007 164.709 123.842C164.474 123.677 164.291 123.447 164.161 123.152C164.031 122.852 163.966 122.51 163.966 122.125C163.966 121.735 164.031 121.392 164.161 121.097C164.291 120.802 164.474 120.572 164.709 120.407C164.949 120.242 165.226 120.16 165.541 120.16C165.876 120.16 166.171 120.242 166.426 120.407C166.681 120.572 166.879 120.802 167.019 121.097C167.164 121.392 167.236 121.735 167.236 122.125C167.236 122.51 167.164 122.852 167.019 123.152C166.879 123.447 166.681 123.677 166.426 123.842C166.171 124.007 165.876 124.09 165.541 124.09ZM165.406 123.542C165.641 123.542 165.849 123.482 166.029 123.362C166.214 123.242 166.359 123.075 166.464 122.86C166.574 122.645 166.629 122.4 166.629 122.125C166.629 121.85 166.576 121.605 166.471 121.39C166.371 121.175 166.229 121.007 166.044 120.887C165.859 120.767 165.649 120.707 165.414 120.707C165.194 120.707 164.996 120.767 164.821 120.887C164.651 121.007 164.516 121.175 164.416 121.39C164.321 121.605 164.274 121.85 164.274 122.125C164.274 122.4 164.321 122.645 164.416 122.86C164.516 123.075 164.651 123.242 164.821 123.362C164.991 123.482 165.186 123.542 165.406 123.542ZM172.546 124L172.516 123.302V118.75H173.116V124H172.546ZM171.249 124.09C170.914 124.09 170.619 124.007 170.364 123.842C170.109 123.677 169.909 123.447 169.764 123.152C169.624 122.852 169.554 122.51 169.554 122.125C169.554 121.735 169.624 121.392 169.764 121.097C169.909 120.802 170.109 120.572 170.364 120.407C170.619 120.242 170.914 120.16 171.249 120.16C171.564 120.16 171.839 120.242 172.074 120.407C172.314 120.572 172.499 120.802 172.629 121.097C172.759 121.392 172.824 121.735 172.824 122.125C172.824 122.51 172.759 122.852 172.629 123.152C172.499 123.447 172.314 123.677 172.074 123.842C171.839 124.007 171.564 124.09 171.249 124.09ZM171.384 123.542C171.604 123.542 171.799 123.482 171.969 123.362C172.139 123.242 172.271 123.075 172.366 122.86C172.466 122.645 172.516 122.4 172.516 122.125C172.516 121.85 172.466 121.605 172.366 121.39C172.271 121.175 172.139 121.007 171.969 120.887C171.799 120.767 171.601 120.707 171.376 120.707C171.141 120.707 170.931 120.767 170.746 120.887C170.566 121.007 170.424 121.175 170.319 121.39C170.214 121.605 170.161 121.85 170.161 122.125C170.161 122.4 170.214 122.645 170.319 122.86C170.424 123.075 170.569 123.242 170.754 123.362C170.939 123.482 171.149 123.542 171.384 123.542ZM175.734 124.09C175.369 124.09 175.046 124.007 174.766 123.842C174.486 123.672 174.266 123.44 174.106 123.145C173.951 122.85 173.874 122.51 173.874 122.125C173.874 121.74 173.951 121.4 174.106 121.105C174.266 120.81 174.484 120.58 174.759 120.415C175.039 120.245 175.359 120.16 175.719 120.16C176.069 120.16 176.371 120.247 176.626 120.422C176.881 120.592 177.079 120.832 177.219 121.142C177.359 121.452 177.429 121.817 177.429 122.237H174.331L174.481 122.11C174.481 122.41 174.534 122.667 174.639 122.882C174.749 123.097 174.901 123.262 175.096 123.377C175.291 123.487 175.514 123.542 175.764 123.542C176.029 123.542 176.251 123.48 176.431 123.355C176.616 123.23 176.759 123.065 176.859 122.86L177.376 123.122C177.281 123.317 177.154 123.487 176.994 123.632C176.839 123.777 176.654 123.89 176.439 123.97C176.229 124.05 175.994 124.09 175.734 124.09ZM174.519 121.855L174.361 121.735H176.949L176.791 121.862C176.791 121.622 176.744 121.415 176.649 121.24C176.554 121.065 176.426 120.93 176.266 120.835C176.106 120.74 175.921 120.692 175.711 120.692C175.506 120.692 175.311 120.74 175.126 120.835C174.946 120.93 174.799 121.065 174.684 121.24C174.574 121.41 174.519 121.615 174.519 121.855ZM180.42 124L180.39 123.385V122.02C180.39 121.725 180.358 121.482 180.293 121.292C180.228 121.097 180.125 120.95 179.985 120.85C179.845 120.75 179.663 120.7 179.438 120.7C179.233 120.7 179.055 120.742 178.905 120.827C178.76 120.907 178.64 121.037 178.545 121.217L178.005 121.007C178.1 120.832 178.215 120.682 178.35 120.557C178.485 120.427 178.643 120.33 178.823 120.265C179.003 120.195 179.208 120.16 179.438 120.16C179.788 120.16 180.075 120.23 180.3 120.37C180.53 120.505 180.703 120.707 180.818 120.977C180.933 121.242 180.988 121.572 180.983 121.967L180.975 124H180.42ZM179.295 124.09C178.855 124.09 178.51 123.99 178.26 123.79C178.015 123.585 177.893 123.302 177.893 122.942C177.893 122.562 178.018 122.272 178.268 122.073C178.523 121.867 178.878 121.765 179.333 121.765H180.405V122.267H179.468C179.118 122.267 178.868 122.325 178.718 122.44C178.573 122.555 178.5 122.72 178.5 122.935C178.5 123.13 178.573 123.285 178.718 123.4C178.863 123.51 179.065 123.565 179.325 123.565C179.54 123.565 179.728 123.52 179.888 123.43C180.048 123.335 180.17 123.202 180.255 123.032C180.345 122.857 180.39 122.652 180.39 122.417H180.645C180.645 122.927 180.53 123.335 180.3 123.64C180.07 123.94 179.735 124.09 179.295 124.09ZM181.858 124V118.75H182.458V124H181.858ZM184.744 124.09C184.469 124.09 184.229 124.05 184.024 123.97C183.819 123.885 183.646 123.775 183.506 123.64C183.371 123.505 183.274 123.357 183.214 123.197L183.739 122.98C183.824 123.15 183.951 123.287 184.121 123.392C184.291 123.497 184.479 123.55 184.684 123.55C184.919 123.55 185.116 123.505 185.276 123.415C185.436 123.32 185.516 123.187 185.516 123.017C185.516 122.862 185.456 122.737 185.336 122.642C185.221 122.547 185.049 122.47 184.819 122.41L184.459 122.312C184.119 122.222 183.854 122.087 183.664 121.907C183.474 121.722 183.379 121.515 183.379 121.285C183.379 120.93 183.494 120.655 183.724 120.46C183.959 120.26 184.306 120.16 184.766 120.16C184.986 120.16 185.186 120.192 185.366 120.257C185.546 120.322 185.701 120.415 185.831 120.535C185.961 120.65 186.056 120.787 186.116 120.947L185.591 121.18C185.526 121.01 185.419 120.887 185.269 120.812C185.119 120.737 184.936 120.7 184.721 120.7C184.491 120.7 184.311 120.75 184.181 120.85C184.051 120.945 183.986 121.08 183.986 121.255C183.986 121.355 184.039 121.45 184.144 121.54C184.254 121.625 184.414 121.695 184.624 121.75L184.999 121.847C185.244 121.907 185.449 121.997 185.614 122.117C185.779 122.232 185.904 122.365 185.989 122.515C186.074 122.665 186.116 122.825 186.116 122.995C186.116 123.22 186.056 123.415 185.936 123.58C185.816 123.745 185.654 123.872 185.449 123.962C185.244 124.047 185.009 124.09 184.744 124.09ZM188.628 124V118.75H189.228V123.302L189.198 124H188.628ZM190.496 124.09C190.181 124.09 189.903 124.007 189.663 123.842C189.428 123.677 189.246 123.447 189.116 123.152C188.986 122.852 188.921 122.51 188.921 122.125C188.921 121.735 188.986 121.392 189.116 121.097C189.246 120.802 189.428 120.572 189.663 120.407C189.903 120.242 190.181 120.16 190.496 120.16C190.831 120.16 191.126 120.242 191.381 120.407C191.636 120.572 191.833 120.802 191.973 121.097C192.118 121.392 192.191 121.735 192.191 122.125C192.191 122.51 192.118 122.852 191.973 123.152C191.833 123.447 191.636 123.677 191.381 123.842C191.126 124.007 190.831 124.09 190.496 124.09ZM190.361 123.542C190.596 123.542 190.803 123.482 190.983 123.362C191.168 123.242 191.313 123.075 191.418 122.86C191.528 122.645 191.583 122.4 191.583 122.125C191.583 121.85 191.531 121.605 191.426 121.39C191.326 121.175 191.183 121.007 190.998 120.887C190.813 120.767 190.603 120.707 190.368 120.707C190.148 120.707 189.951 120.767 189.776 120.887C189.606 121.007 189.471 121.175 189.371 121.39C189.276 121.605 189.228 121.85 189.228 122.125C189.228 122.4 189.276 122.645 189.371 122.86C189.471 123.075 189.606 123.242 189.776 123.362C189.946 123.482 190.141 123.542 190.361 123.542ZM194.59 124.09C194.225 124.09 193.903 124.007 193.623 123.842C193.343 123.672 193.123 123.44 192.963 123.145C192.808 122.85 192.73 122.51 192.73 122.125C192.73 121.74 192.808 121.4 192.963 121.105C193.123 120.81 193.34 120.58 193.615 120.415C193.895 120.245 194.215 120.16 194.575 120.16C194.925 120.16 195.228 120.247 195.483 120.422C195.738 120.592 195.935 120.832 196.075 121.142C196.215 121.452 196.285 121.817 196.285 122.237H193.188L193.338 122.11C193.338 122.41 193.39 122.667 193.495 122.882C193.605 123.097 193.758 123.262 193.953 123.377C194.148 123.487 194.37 123.542 194.62 123.542C194.885 123.542 195.108 123.48 195.288 123.355C195.473 123.23 195.615 123.065 195.715 122.86L196.233 123.122C196.138 123.317 196.01 123.487 195.85 123.632C195.695 123.777 195.51 123.89 195.295 123.97C195.085 124.05 194.85 124.09 194.59 124.09ZM193.375 121.855L193.218 121.735H195.805L195.648 121.862C195.648 121.622 195.6 121.415 195.505 121.24C195.41 121.065 195.283 120.93 195.123 120.835C194.963 120.74 194.778 120.692 194.568 120.692C194.363 120.692 194.168 120.74 193.983 120.835C193.803 120.93 193.655 121.065 193.54 121.24C193.43 121.41 193.375 121.615 193.375 121.855ZM197.342 124V119.822C197.342 119.432 197.432 119.14 197.612 118.945C197.797 118.745 198.077 118.645 198.452 118.645C198.552 118.645 198.664 118.662 198.789 118.697C198.914 118.732 199.047 118.782 199.187 118.847L198.962 119.32C198.847 119.275 198.749 119.24 198.669 119.215C198.589 119.19 198.522 119.177 198.467 119.177C198.292 119.177 198.159 119.235 198.069 119.35C197.984 119.46 197.942 119.632 197.942 119.868V124H197.342ZM196.652 120.767V120.25H199.029V120.767H196.652ZM201.296 124.09C200.931 124.09 200.606 124.007 200.321 123.842C200.041 123.672 199.821 123.44 199.661 123.145C199.501 122.85 199.421 122.51 199.421 122.125C199.421 121.74 199.498 121.4 199.653 121.105C199.813 120.81 200.033 120.58 200.313 120.415C200.598 120.245 200.921 120.16 201.281 120.16C201.651 120.16 201.976 120.245 202.256 120.415C202.541 120.58 202.761 120.81 202.916 121.105C203.076 121.4 203.156 121.74 203.156 122.125C203.156 122.51 203.076 122.85 202.916 123.145C202.761 123.44 202.543 123.672 202.263 123.842C201.983 124.007 201.661 124.09 201.296 124.09ZM201.296 123.535C201.546 123.535 201.763 123.475 201.948 123.355C202.133 123.235 202.278 123.07 202.383 122.86C202.493 122.65 202.548 122.405 202.548 122.125C202.548 121.845 202.493 121.6 202.383 121.39C202.278 121.18 202.131 121.015 201.941 120.895C201.751 120.775 201.531 120.715 201.281 120.715C201.036 120.715 200.818 120.775 200.628 120.895C200.443 121.015 200.296 121.18 200.186 121.39C200.081 121.6 200.028 121.845 200.028 122.125C200.028 122.4 200.081 122.645 200.186 122.86C200.296 123.07 200.446 123.235 200.636 123.355C200.831 123.475 201.051 123.535 201.296 123.535ZM204.244 121.967C204.244 121.562 204.322 121.235 204.477 120.985C204.632 120.73 204.829 120.542 205.069 120.422C205.314 120.297 205.572 120.235 205.842 120.235V120.797C205.622 120.797 205.409 120.835 205.204 120.91C205.004 120.98 204.839 121.097 204.709 121.262C204.579 121.427 204.514 121.652 204.514 121.937L204.244 121.967ZM203.914 124V120.25H204.514V124H203.914ZM208.016 124.09C207.651 124.09 207.328 124.007 207.048 123.842C206.768 123.672 206.548 123.44 206.388 123.145C206.233 122.85 206.156 122.51 206.156 122.125C206.156 121.74 206.233 121.4 206.388 121.105C206.548 120.81 206.766 120.58 207.041 120.415C207.321 120.245 207.641 120.16 208.001 120.16C208.351 120.16 208.653 120.247 208.908 120.422C209.163 120.592 209.361 120.832 209.501 121.142C209.641 121.452 209.711 121.817 209.711 122.237H206.613L206.763 122.11C206.763 122.41 206.816 122.667 206.921 122.882C207.031 123.097 207.183 123.262 207.378 123.377C207.573 123.487 207.796 123.542 208.046 123.542C208.311 123.542 208.533 123.48 208.713 123.355C208.898 123.23 209.041 123.065 209.141 122.86L209.658 123.122C209.563 123.317 209.436 123.487 209.276 123.632C209.121 123.777 208.936 123.89 208.721 123.97C208.511 124.05 208.276 124.09 208.016 124.09ZM206.801 121.855L206.643 121.735H209.231L209.073 121.862C209.073 121.622 209.026 121.415 208.931 121.24C208.836 121.065 208.708 120.93 208.548 120.835C208.388 120.74 208.203 120.692 207.993 120.692C207.788 120.692 207.593 120.74 207.408 120.835C207.228 120.93 207.081 121.065 206.966 121.24C206.856 121.41 206.801 121.615 206.801 121.855ZM213.581 124.09C213.216 124.09 212.933 123.995 212.733 123.805C212.533 123.615 212.433 123.347 212.433 123.002V119.08H213.033V122.942C213.033 123.132 213.083 123.28 213.183 123.385C213.288 123.485 213.433 123.535 213.618 123.535C213.678 123.535 213.736 123.527 213.791 123.512C213.851 123.492 213.928 123.447 214.023 123.377L214.256 123.865C214.126 123.95 214.008 124.008 213.903 124.038C213.798 124.073 213.691 124.09 213.581 124.09ZM211.781 120.782V120.25H214.158V120.782H211.781ZM214.93 124V118.75H215.53V124H214.93ZM217.57 124V122.08H218.17V124H217.57ZM217.57 122.08C217.57 121.71 217.525 121.427 217.435 121.232C217.35 121.037 217.232 120.905 217.082 120.835C216.932 120.76 216.762 120.722 216.572 120.722C216.242 120.722 215.985 120.84 215.8 121.075C215.62 121.305 215.53 121.632 215.53 122.057H215.237C215.237 121.662 215.295 121.322 215.41 121.037C215.53 120.752 215.7 120.535 215.92 120.385C216.14 120.235 216.405 120.16 216.715 120.16C217.005 120.16 217.26 120.22 217.48 120.34C217.7 120.455 217.87 120.64 217.99 120.895C218.115 121.15 218.175 121.485 218.17 121.9V122.08H217.57ZM220.68 124.09C220.315 124.09 219.992 124.007 219.712 123.842C219.432 123.672 219.212 123.44 219.052 123.145C218.897 122.85 218.82 122.51 218.82 122.125C218.82 121.74 218.897 121.4 219.052 121.105C219.212 120.81 219.43 120.58 219.705 120.415C219.985 120.245 220.305 120.16 220.665 120.16C221.015 120.16 221.317 120.247 221.572 120.422C221.827 120.592 222.025 120.832 222.165 121.142C222.305 121.452 222.375 121.817 222.375 122.237H219.277L219.427 122.11C219.427 122.41 219.48 122.667 219.585 122.882C219.695 123.097 219.847 123.262 220.042 123.377C220.237 123.487 220.46 123.542 220.71 123.542C220.975 123.542 221.197 123.48 221.377 123.355C221.562 123.23 221.705 123.065 221.805 122.86L222.322 123.122C222.227 123.317 222.1 123.487 221.94 123.632C221.785 123.777 221.6 123.89 221.385 123.97C221.175 124.05 220.94 124.09 220.68 124.09ZM219.465 121.855L219.307 121.735H221.895L221.737 121.862C221.737 121.622 221.69 121.415 221.595 121.24C221.5 121.065 221.372 120.93 221.212 120.835C221.052 120.74 220.867 120.692 220.657 120.692C220.452 120.692 220.257 120.74 220.072 120.835C219.892 120.93 219.745 121.065 219.63 121.24C219.52 121.41 219.465 121.615 219.465 121.855ZM223.299 125.59C223.204 125.59 223.094 125.57 222.969 125.53C222.844 125.495 222.711 125.448 222.571 125.388L222.796 124.885C222.911 124.935 223.011 124.973 223.096 124.998C223.186 125.023 223.256 125.035 223.306 125.035C223.441 125.035 223.551 124.998 223.636 124.923C223.726 124.853 223.801 124.75 223.861 124.615L224.289 123.595L225.676 120.25H226.321L224.521 124.525C224.426 124.745 224.326 124.935 224.221 125.095C224.121 125.255 223.999 125.378 223.854 125.463C223.709 125.548 223.524 125.59 223.299 125.59ZM224.124 124L222.504 120.25H223.141L224.536 123.587L224.716 124H224.124ZM230.112 125.59C229.872 125.59 229.652 125.565 229.452 125.515C229.257 125.47 229.089 125.418 228.949 125.358C228.814 125.303 228.717 125.255 228.657 125.215L228.882 124.728C228.947 124.763 229.039 124.805 229.159 124.855C229.279 124.91 229.419 124.955 229.579 124.99C229.744 125.03 229.919 125.05 230.104 125.05C230.344 125.05 230.559 125 230.749 124.9C230.944 124.805 231.094 124.653 231.199 124.443C231.309 124.238 231.364 123.973 231.364 123.647V120.25H231.964V123.64C231.964 124.07 231.884 124.43 231.724 124.72C231.564 125.01 231.344 125.228 231.064 125.373C230.784 125.518 230.467 125.59 230.112 125.59ZM230.089 123.97C229.754 123.97 229.459 123.89 229.204 123.73C228.949 123.57 228.749 123.347 228.604 123.062C228.464 122.772 228.394 122.442 228.394 122.073C228.394 121.692 228.464 121.36 228.604 121.075C228.749 120.785 228.949 120.56 229.204 120.4C229.459 120.24 229.754 120.16 230.089 120.16C230.404 120.16 230.679 120.24 230.914 120.4C231.149 120.56 231.332 120.785 231.462 121.075C231.597 121.36 231.664 121.692 231.664 122.073C231.664 122.447 231.597 122.777 231.462 123.063C231.332 123.347 231.149 123.57 230.914 123.73C230.679 123.89 230.404 123.97 230.089 123.97ZM230.232 123.452C230.452 123.452 230.647 123.392 230.817 123.272C230.987 123.152 231.119 122.99 231.214 122.785C231.309 122.575 231.357 122.332 231.357 122.057C231.357 121.792 231.307 121.557 231.207 121.352C231.112 121.142 230.979 120.98 230.809 120.865C230.644 120.745 230.449 120.685 230.224 120.685C229.989 120.685 229.779 120.745 229.594 120.865C229.414 120.98 229.272 121.142 229.167 121.352C229.067 121.557 229.017 121.792 229.017 122.057C229.017 122.332 229.069 122.575 229.174 122.785C229.279 122.99 229.422 123.152 229.602 123.272C229.787 123.392 229.997 123.452 230.232 123.452ZM234.596 124.09C234.231 124.09 233.906 124.007 233.621 123.842C233.341 123.672 233.121 123.44 232.961 123.145C232.801 122.85 232.721 122.51 232.721 122.125C232.721 121.74 232.799 121.4 232.954 121.105C233.114 120.81 233.334 120.58 233.614 120.415C233.899 120.245 234.221 120.16 234.581 120.16C234.951 120.16 235.276 120.245 235.556 120.415C235.841 120.58 236.061 120.81 236.216 121.105C236.376 121.4 236.456 121.74 236.456 122.125C236.456 122.51 236.376 122.85 236.216 123.145C236.061 123.44 235.844 123.672 235.564 123.842C235.284 124.007 234.961 124.09 234.596 124.09ZM234.596 123.535C234.846 123.535 235.064 123.475 235.249 123.355C235.434 123.235 235.579 123.07 235.684 122.86C235.794 122.65 235.849 122.405 235.849 122.125C235.849 121.845 235.794 121.6 235.684 121.39C235.579 121.18 235.431 121.015 235.241 120.895C235.051 120.775 234.831 120.715 234.581 120.715C234.336 120.715 234.119 120.775 233.929 120.895C233.744 121.015 233.596 121.18 233.486 121.39C233.381 121.6 233.329 121.845 233.329 122.125C233.329 122.4 233.381 122.645 233.486 122.86C233.596 123.07 233.746 123.235 233.936 123.355C234.131 123.475 234.351 123.535 234.596 123.535ZM240.65 124.09C240.285 124.09 239.96 124.007 239.675 123.842C239.395 123.672 239.175 123.44 239.015 123.145C238.855 122.85 238.775 122.51 238.775 122.125C238.775 121.74 238.852 121.4 239.007 121.105C239.167 120.81 239.387 120.58 239.667 120.415C239.952 120.245 240.275 120.16 240.635 120.16C241.005 120.16 241.33 120.245 241.61 120.415C241.895 120.58 242.115 120.81 242.27 121.105C242.43 121.4 242.51 121.74 242.51 122.125C242.51 122.51 242.43 122.85 242.27 123.145C242.115 123.44 241.897 123.672 241.617 123.842C241.337 124.007 241.015 124.09 240.65 124.09ZM240.65 123.535C240.9 123.535 241.117 123.475 241.302 123.355C241.487 123.235 241.632 123.07 241.737 122.86C241.847 122.65 241.902 122.405 241.902 122.125C241.902 121.845 241.847 121.6 241.737 121.39C241.632 121.18 241.485 121.015 241.295 120.895C241.105 120.775 240.885 120.715 240.635 120.715C240.39 120.715 240.172 120.775 239.982 120.895C239.797 121.015 239.65 121.18 239.54 121.39C239.435 121.6 239.382 121.845 239.382 122.125C239.382 122.4 239.435 122.645 239.54 122.86C239.65 123.07 239.8 123.235 239.99 123.355C240.185 123.475 240.405 123.535 240.65 123.535ZM243.643 124V119.822C243.643 119.432 243.733 119.14 243.913 118.945C244.098 118.745 244.378 118.645 244.753 118.645C244.853 118.645 244.965 118.662 245.09 118.697C245.215 118.732 245.348 118.782 245.488 118.847L245.263 119.32C245.148 119.275 245.05 119.24 244.97 119.215C244.89 119.19 244.823 119.177 244.768 119.177C244.593 119.177 244.46 119.235 244.37 119.35C244.285 119.46 244.243 119.632 244.243 119.868V124H243.643ZM242.953 120.767V120.25H245.33V120.767H242.953ZM246.337 124V119.822C246.337 119.432 246.427 119.14 246.607 118.945C246.792 118.745 247.072 118.645 247.447 118.645C247.547 118.645 247.659 118.662 247.784 118.697C247.909 118.732 248.042 118.782 248.182 118.847L247.957 119.32C247.842 119.275 247.744 119.24 247.664 119.215C247.584 119.19 247.517 119.177 247.462 119.177C247.287 119.177 247.154 119.235 247.064 119.35C246.979 119.46 246.937 119.632 246.937 119.868V124H246.337ZM245.647 120.767V120.25H248.024V120.767H245.647ZM248.94 122.477L248.918 118.75H249.57L249.555 122.477H248.94ZM249.248 124.105C249.133 124.105 249.033 124.065 248.948 123.985C248.868 123.905 248.828 123.807 248.828 123.692C248.828 123.577 248.868 123.48 248.948 123.4C249.033 123.315 249.133 123.272 249.248 123.272C249.363 123.272 249.46 123.315 249.54 123.4C249.62 123.48 249.66 123.577 249.66 123.692C249.66 123.807 249.62 123.905 249.54 123.985C249.46 124.065 249.363 124.105 249.248 124.105ZM251.099 122.477L251.076 118.75H251.729L251.714 122.477H251.099ZM251.406 124.105C251.291 124.105 251.191 124.065 251.106 123.985C251.026 123.905 250.986 123.807 250.986 123.692C250.986 123.577 251.026 123.48 251.106 123.4C251.191 123.315 251.291 123.272 251.406 123.272C251.521 123.272 251.619 123.315 251.699 123.4C251.779 123.48 251.819 123.577 251.819 123.692C251.819 123.807 251.779 123.905 251.699 123.985C251.619 124.065 251.521 124.105 251.406 124.105ZM253.258 122.477L253.235 118.75H253.888L253.873 122.477H253.258ZM253.565 124.105C253.45 124.105 253.35 124.065 253.265 123.985C253.185 123.905 253.145 123.807 253.145 123.692C253.145 123.577 253.185 123.48 253.265 123.4C253.35 123.315 253.45 123.272 253.565 123.272C253.68 123.272 253.778 123.315 253.858 123.4C253.938 123.48 253.978 123.577 253.978 123.692C253.978 123.807 253.938 123.905 253.858 123.985C253.778 124.065 253.68 124.105 253.565 124.105Z" fill="#939393"/>
<rect x="95" y="138" width="64" height="34.5" rx="3.36569" fill="#1F1F1F"/>
<rect x="115" y="150" width="24" height="3" rx="1.5" fill="#333333"/>
<rect x="110.125" y="157.5" width="33.75" height="3" rx="1.5" fill="#333333"/>
<rect x="171" y="138" width="64" height="34.5" rx="3.36569" fill="#1F1F1F"/>
<rect x="191" y="150" width="24" height="3" rx="1.5" fill="#333333"/>
<rect x="186.125" y="157.5" width="33.75" height="3" rx="1.5" fill="#333333"/>
<rect x="247" y="138" width="64" height="34.5" rx="3.36569" fill="#1F1F1F"/>
<rect x="267" y="150" width="24" height="3" rx="1.5" fill="#333333"/>
<rect x="262.125" y="157.5" width="33.75" height="3" rx="1.5" fill="#333333"/>
<path d="M95 188.5C95 186.291 96.7909 184.5 99 184.5H307C309.209 184.5 311 186.291 311 188.5V207.5C311 209.709 309.209 211.5 307 211.5H99C96.7909 211.5 95 209.709 95 207.5V188.5Z" fill="white"/>
<path d="M95 188.5C95 186.291 96.7909 184.5 99 184.5H307C309.209 184.5 311 186.291 311 188.5V207.5C311 209.709 309.209 211.5 307 211.5H99C96.7909 211.5 95 209.709 95 207.5V188.5Z" fill="url(#paint1_radial_4749_9604)"/>
<path d="M95 188.5C95 186.291 96.7909 184.5 99 184.5H307C309.209 184.5 311 186.291 311 188.5V207.5C311 209.709 309.209 211.5 307 211.5H99C96.7909 211.5 95 209.709 95 207.5V188.5Z" fill="url(#paint2_radial_4749_9604)"/>
<path d="M95 188.5C95 186.291 96.7909 184.5 99 184.5H307C309.209 184.5 311 186.291 311 188.5V207.5C311 209.709 309.209 211.5 307 211.5H99C96.7909 211.5 95 209.709 95 207.5V188.5Z" fill="url(#paint3_radial_4749_9604)"/>
<path d="M185.908 201.5L183.042 194.15H184.26L187.2 201.5H185.908ZM180.039 201.5L182.968 194.15H184.197L181.33 201.5H180.039ZM181.414 199.694V198.612H185.814V199.694H181.414ZM189.31 201.5L191.357 196.25H192.575L190.412 201.5H189.31ZM189.226 201.5L187.052 196.25H188.26L190.318 201.5H189.226ZM196.369 201.5L196.316 200.513V198.802C196.316 198.444 196.278 198.147 196.201 197.909C196.131 197.664 196.012 197.478 195.844 197.352C195.683 197.219 195.466 197.153 195.193 197.153C194.941 197.153 194.72 197.205 194.531 197.31C194.342 197.415 194.181 197.58 194.048 197.804L193.019 197.426C193.131 197.195 193.278 196.981 193.46 196.785C193.649 196.582 193.884 196.421 194.164 196.302C194.451 196.183 194.794 196.124 195.193 196.124C195.704 196.124 196.131 196.225 196.474 196.428C196.817 196.624 197.069 196.908 197.23 197.279C197.398 197.65 197.482 198.098 197.482 198.623L197.45 201.5H196.369ZM194.857 201.626C194.227 201.626 193.737 201.486 193.387 201.206C193.044 200.926 192.872 200.53 192.872 200.019C192.872 199.473 193.054 199.057 193.418 198.77C193.789 198.483 194.304 198.339 194.962 198.339H196.369V199.242H195.34C194.871 199.242 194.542 199.309 194.353 199.442C194.164 199.568 194.069 199.75 194.069 199.988C194.069 200.191 194.15 200.352 194.311 200.471C194.479 200.583 194.71 200.639 195.004 200.639C195.27 200.639 195.501 200.579 195.697 200.46C195.893 200.341 196.043 200.184 196.148 199.988C196.26 199.792 196.316 199.571 196.316 199.326H196.663C196.663 200.04 196.519 200.604 196.232 201.017C195.945 201.423 195.487 201.626 194.857 201.626ZM198.746 201.5V196.25H199.912V201.5H198.746ZM199.334 195.252C199.145 195.252 198.981 195.186 198.841 195.053C198.708 194.913 198.641 194.748 198.641 194.559C198.641 194.37 198.708 194.209 198.841 194.076C198.981 193.943 199.145 193.877 199.334 193.877C199.523 193.877 199.684 193.943 199.817 194.076C199.957 194.209 200.027 194.37 200.027 194.559C200.027 194.748 199.957 194.913 199.817 195.053C199.684 195.186 199.523 195.252 199.334 195.252ZM201.298 201.5V194.15H202.474V201.5H201.298ZM206.312 201.5V196.25H207.414L207.488 197.216V201.5H206.312ZM209.871 201.5V198.812H211.047V201.5H209.871ZM209.871 198.812C209.871 198.392 209.822 198.07 209.724 197.846C209.633 197.615 209.5 197.454 209.325 197.363C209.157 197.272 208.958 197.226 208.727 197.226C208.335 197.219 208.03 197.349 207.813 197.615C207.596 197.881 207.488 198.262 207.488 198.759H207.047C207.047 198.206 207.127 197.734 207.288 197.342C207.449 196.943 207.68 196.642 207.981 196.439C208.282 196.229 208.639 196.124 209.052 196.124C209.472 196.124 209.829 196.208 210.123 196.376C210.424 196.544 210.652 196.806 210.806 197.163C210.967 197.513 211.047 197.972 211.047 198.539V198.812H209.871ZM214.654 201.626C214.129 201.626 213.66 201.51 213.247 201.279C212.841 201.041 212.522 200.716 212.291 200.303C212.06 199.89 211.945 199.414 211.945 198.875C211.945 198.336 212.057 197.86 212.281 197.447C212.512 197.034 212.83 196.712 213.236 196.481C213.642 196.243 214.108 196.124 214.633 196.124C215.158 196.124 215.623 196.243 216.029 196.481C216.435 196.712 216.75 197.034 216.974 197.447C217.205 197.86 217.321 198.336 217.321 198.875C217.321 199.414 217.209 199.89 216.985 200.303C216.761 200.716 216.446 201.041 216.04 201.279C215.634 201.51 215.172 201.626 214.654 201.626ZM214.654 200.544C214.941 200.544 215.196 200.474 215.42 200.334C215.644 200.187 215.819 199.991 215.945 199.746C216.071 199.494 216.134 199.204 216.134 198.875C216.134 198.546 216.068 198.259 215.935 198.014C215.809 197.762 215.634 197.566 215.41 197.426C215.186 197.279 214.927 197.205 214.633 197.205C214.339 197.205 214.08 197.275 213.856 197.415C213.632 197.555 213.457 197.751 213.331 198.003C213.205 198.255 213.142 198.546 213.142 198.875C213.142 199.204 213.205 199.494 213.331 199.746C213.464 199.991 213.642 200.187 213.866 200.334C214.097 200.474 214.36 200.544 214.654 200.544ZM223.006 201.5L224.76 196.25H225.946L224.161 201.5H223.006ZM219.489 201.5L221.2 196.25H222.24L220.549 201.5H219.489ZM219.384 201.5L217.599 196.25H218.785L220.497 201.5H219.384ZM222.996 201.5L221.316 196.25H222.355L224.067 201.5H222.996Z" fill="white"/>
<rect x="95.375" y="223.875" width="215.25" height="20.25" rx="2.625" stroke="url(#paint4_linear_4749_9604)" stroke-width="0.75"/>
<path d="M177.583 237.626C176.841 237.626 176.179 237.465 175.598 237.143C175.024 236.814 174.573 236.366 174.244 235.799C173.915 235.225 173.75 234.57 173.75 233.835C173.75 233.086 173.915 232.428 174.244 231.861C174.573 231.287 175.024 230.839 175.598 230.517C176.179 230.188 176.841 230.024 177.583 230.024C178.01 230.024 178.409 230.09 178.78 230.223C179.158 230.356 179.497 230.538 179.798 230.769C180.099 230.993 180.344 231.256 180.533 231.557L179.546 232.187C179.413 231.984 179.242 231.802 179.032 231.641C178.822 231.48 178.591 231.357 178.339 231.273C178.094 231.182 177.842 231.137 177.583 231.137C177.079 231.137 176.631 231.252 176.239 231.483C175.854 231.714 175.549 232.033 175.325 232.439C175.101 232.838 174.989 233.303 174.989 233.835C174.989 234.353 175.098 234.815 175.315 235.221C175.539 235.627 175.847 235.946 176.239 236.177C176.638 236.408 177.096 236.523 177.614 236.523C178.02 236.523 178.384 236.439 178.706 236.271C179.028 236.103 179.28 235.869 179.462 235.568C179.651 235.267 179.746 234.92 179.746 234.528L180.911 234.381C180.911 235.046 180.768 235.624 180.481 236.114C180.201 236.597 179.809 236.971 179.305 237.237C178.808 237.496 178.234 237.626 177.583 237.626ZM177.982 234.623V233.636H180.911V234.455L180.26 234.623H177.982ZM184.282 237.626C183.757 237.626 183.288 237.51 182.875 237.279C182.469 237.041 182.15 236.716 181.919 236.303C181.688 235.89 181.573 235.414 181.573 234.875C181.573 234.336 181.685 233.86 181.909 233.447C182.14 233.034 182.458 232.712 182.864 232.481C183.27 232.243 183.736 232.124 184.261 232.124C184.786 232.124 185.251 232.243 185.657 232.481C186.063 232.712 186.378 233.034 186.602 233.447C186.833 233.86 186.949 234.336 186.949 234.875C186.949 235.414 186.837 235.89 186.613 236.303C186.389 236.716 186.074 237.041 185.668 237.279C185.262 237.51 184.8 237.626 184.282 237.626ZM184.282 236.544C184.569 236.544 184.824 236.474 185.048 236.334C185.272 236.187 185.447 235.991 185.573 235.746C185.699 235.494 185.762 235.204 185.762 234.875C185.762 234.546 185.696 234.259 185.563 234.014C185.437 233.762 185.262 233.566 185.038 233.426C184.814 233.279 184.555 233.205 184.261 233.205C183.967 233.205 183.708 233.275 183.484 233.415C183.26 233.555 183.085 233.751 182.959 234.003C182.833 234.255 182.77 234.546 182.77 234.875C182.77 235.204 182.833 235.494 182.959 235.746C183.092 235.991 183.27 236.187 183.494 236.334C183.725 236.474 183.988 236.544 184.282 236.544ZM192.59 237.626C192.037 237.626 191.613 237.489 191.319 237.216C191.032 236.936 190.889 236.537 190.889 236.019V230.612H192.054V235.799C192.054 236.044 192.11 236.229 192.222 236.355C192.341 236.481 192.513 236.544 192.737 236.544C192.807 236.544 192.884 236.53 192.968 236.502C193.052 236.474 193.146 236.422 193.251 236.345L193.682 237.237C193.5 237.363 193.318 237.458 193.136 237.521C192.954 237.591 192.772 237.626 192.59 237.626ZM190.017 233.258V232.25H193.472V233.258H190.017ZM196.976 237.626C196.451 237.626 195.982 237.51 195.569 237.279C195.163 237.041 194.844 236.716 194.613 236.303C194.382 235.89 194.267 235.414 194.267 234.875C194.267 234.336 194.379 233.86 194.603 233.447C194.834 233.034 195.152 232.712 195.558 232.481C195.964 232.243 196.43 232.124 196.955 232.124C197.48 232.124 197.945 232.243 198.351 232.481C198.757 232.712 199.072 233.034 199.296 233.447C199.527 233.86 199.643 234.336 199.643 234.875C199.643 235.414 199.531 235.89 199.307 236.303C199.083 236.716 198.768 237.041 198.362 237.279C197.956 237.51 197.494 237.626 196.976 237.626ZM196.976 236.544C197.263 236.544 197.518 236.474 197.742 236.334C197.966 236.187 198.141 235.991 198.267 235.746C198.393 235.494 198.456 235.204 198.456 234.875C198.456 234.546 198.39 234.259 198.257 234.014C198.131 233.762 197.956 233.566 197.732 233.426C197.508 233.279 197.249 233.205 196.955 233.205C196.661 233.205 196.402 233.275 196.178 233.415C195.954 233.555 195.779 233.751 195.653 234.003C195.527 234.255 195.464 234.546 195.464 234.875C195.464 235.204 195.527 235.494 195.653 235.746C195.786 235.991 195.964 236.187 196.188 236.334C196.419 236.474 196.682 236.544 196.976 236.544ZM203.205 237.5V230.15H204.381V237.5H203.205ZM206.765 237.5V234.812H207.941V237.5H206.765ZM206.765 234.812C206.765 234.392 206.716 234.07 206.618 233.846C206.52 233.615 206.383 233.454 206.208 233.363C206.04 233.272 205.844 233.226 205.62 233.226C205.221 233.219 204.913 233.349 204.696 233.615C204.486 233.881 204.381 234.262 204.381 234.759H203.93C203.93 234.206 204.01 233.734 204.171 233.342C204.339 232.943 204.574 232.642 204.875 232.439C205.176 232.229 205.533 232.124 205.946 232.124C206.359 232.124 206.716 232.208 207.017 232.376C207.318 232.544 207.545 232.806 207.699 233.163C207.86 233.513 207.941 233.972 207.941 234.539V234.812H206.765ZM211.547 237.626C211.022 237.626 210.553 237.51 210.14 237.279C209.734 237.041 209.415 236.716 209.184 236.303C208.953 235.89 208.838 235.414 208.838 234.875C208.838 234.336 208.95 233.86 209.174 233.447C209.405 233.034 209.723 232.712 210.129 232.481C210.535 232.243 211.001 232.124 211.526 232.124C212.051 232.124 212.516 232.243 212.922 232.481C213.328 232.712 213.643 233.034 213.867 233.447C214.098 233.86 214.214 234.336 214.214 234.875C214.214 235.414 214.102 235.89 213.878 236.303C213.654 236.716 213.339 237.041 212.933 237.279C212.527 237.51 212.065 237.626 211.547 237.626ZM211.547 236.544C211.834 236.544 212.089 236.474 212.313 236.334C212.537 236.187 212.712 235.991 212.838 235.746C212.964 235.494 213.027 235.204 213.027 234.875C213.027 234.546 212.961 234.259 212.828 234.014C212.702 233.762 212.527 233.566 212.303 233.426C212.079 233.279 211.82 233.205 211.526 233.205C211.232 233.205 210.973 233.275 210.749 233.415C210.525 233.555 210.35 233.751 210.224 234.003C210.098 234.255 210.035 234.546 210.035 234.875C210.035 235.204 210.098 235.494 210.224 235.746C210.357 235.991 210.535 236.187 210.759 236.334C210.99 236.474 211.253 236.544 211.547 236.544ZM215.233 237.5V232.25H216.335L216.388 232.953C216.549 232.68 216.755 232.474 217.007 232.334C217.259 232.194 217.546 232.124 217.868 232.124C218.288 232.124 218.645 232.218 218.939 232.407C219.233 232.596 219.447 232.883 219.58 233.268C219.734 232.897 219.951 232.614 220.231 232.418C220.511 232.222 220.84 232.124 221.218 232.124C221.827 232.124 222.296 232.32 222.625 232.712C222.954 233.097 223.115 233.692 223.108 234.497V237.5H221.942V234.812C221.942 234.392 221.897 234.07 221.806 233.846C221.715 233.615 221.592 233.454 221.438 233.363C221.284 233.272 221.106 233.226 220.903 233.226C220.539 233.219 220.255 233.349 220.052 233.615C219.856 233.881 219.758 234.262 219.758 234.759V237.5H218.582V234.812C218.582 234.392 218.537 234.07 218.446 233.846C218.362 233.615 218.243 233.454 218.089 233.363C217.935 233.272 217.756 233.226 217.553 233.226C217.189 233.219 216.906 233.349 216.703 233.615C216.507 233.881 216.409 234.262 216.409 234.759V237.5H215.233ZM226.649 237.626C226.138 237.626 225.683 237.51 225.284 237.279C224.892 237.041 224.58 236.716 224.349 236.303C224.125 235.89 224.013 235.414 224.013 234.875C224.013 234.336 224.129 233.86 224.36 233.447C224.591 233.034 224.906 232.712 225.305 232.481C225.711 232.243 226.173 232.124 226.691 232.124C227.16 232.124 227.583 232.246 227.961 232.491C228.339 232.729 228.637 233.076 228.854 233.531C229.078 233.986 229.19 234.528 229.19 235.158H225.063L225.221 235.011C225.221 235.333 225.291 235.613 225.431 235.851C225.571 236.082 225.756 236.261 225.987 236.387C226.218 236.513 226.474 236.576 226.754 236.576C227.076 236.576 227.342 236.506 227.552 236.366C227.762 236.219 227.926 236.03 228.045 235.799L229.085 236.24C228.938 236.52 228.749 236.765 228.518 236.975C228.294 237.185 228.024 237.346 227.709 237.458C227.401 237.57 227.048 237.626 226.649 237.626ZM225.294 234.402L225.126 234.255H228.087L227.93 234.402C227.93 234.115 227.867 233.881 227.741 233.699C227.615 233.51 227.454 233.37 227.258 233.279C227.069 233.181 226.869 233.132 226.659 233.132C226.449 233.132 226.239 233.181 226.029 233.279C225.819 233.37 225.644 233.51 225.504 233.699C225.364 233.881 225.294 234.115 225.294 234.402ZM230.479 235.211L230.406 230.15H231.697L231.624 235.211H230.479ZM231.046 237.658C230.843 237.658 230.668 237.584 230.521 237.437C230.381 237.29 230.311 237.115 230.311 236.912C230.311 236.709 230.381 236.537 230.521 236.397C230.668 236.25 230.843 236.177 231.046 236.177C231.249 236.177 231.424 236.25 231.571 236.397C231.718 236.537 231.792 236.709 231.792 236.912C231.792 237.115 231.718 237.29 231.571 237.437C231.424 237.584 231.249 237.658 231.046 237.658Z" fill="white"/>
<g filter="url(#filter0_b_4749_9604)">
<g clip-path="url(#clip1_4749_9604)">
<rect x="1" y="184" width="176" height="113" rx="7.61982" fill="url(#paint5_linear_4749_9604)" fill-opacity="0.5"/>
<path d="M7.84345 198.833V190.319H9.25428V198.833H7.84345ZM10.7773 198.833V192.752H12.0544L12.1395 193.871V198.833H10.7773ZM14.9003 198.833V195.719L16.2625 195.355V198.833H14.9003ZM14.9003 195.719C14.9003 195.233 14.8436 194.86 14.7301 194.601C14.6246 194.333 14.4706 194.146 14.2679 194.041C14.0733 193.936 13.8422 193.883 13.5746 193.883C13.1206 193.875 12.7679 194.025 12.5165 194.333C12.2652 194.641 12.1395 195.083 12.1395 195.659H11.6287C11.6287 195.018 11.7219 194.471 11.9084 194.017C12.0949 193.555 12.3625 193.206 12.7111 192.971C13.0598 192.728 13.4733 192.606 13.9517 192.606C14.6895 192.606 15.2571 192.833 15.6544 193.287C16.0598 193.733 16.2625 194.422 16.2625 195.355L14.9003 195.719ZM20.2451 198.979C19.6207 198.979 19.0694 198.845 18.591 198.578C18.1126 198.302 17.7356 197.925 17.4599 197.447C17.1923 196.968 17.0586 196.417 17.0586 195.792C17.0586 195.168 17.1923 194.617 17.4599 194.138C17.7356 193.66 18.1086 193.287 18.5788 193.019C19.0572 192.744 19.6045 192.606 20.2207 192.606C20.8208 192.606 21.364 192.752 21.8505 193.044C22.337 193.328 22.6978 193.737 22.9329 194.272L21.6681 194.759C21.5383 194.491 21.3397 194.276 21.0721 194.114C20.8045 193.952 20.5005 193.871 20.1599 193.871C19.8275 193.871 19.5316 193.956 19.2721 194.126C19.0126 194.288 18.8099 194.515 18.664 194.807C18.518 195.091 18.4451 195.419 18.4451 195.792C18.4451 196.165 18.518 196.498 18.664 196.79C18.818 197.074 19.0248 197.301 19.2843 197.471C19.5518 197.633 19.8518 197.714 20.1843 197.714C20.5248 197.714 20.8289 197.629 21.0964 197.459C21.364 197.28 21.5627 197.041 21.6924 196.741L22.9573 197.228C22.7221 197.779 22.3613 198.209 21.8748 198.517C21.3964 198.825 20.8532 198.979 20.2451 198.979ZM24.6715 195.598C24.6715 194.941 24.7972 194.402 25.0485 193.98C25.2999 193.559 25.6242 193.246 26.0215 193.044C26.4269 192.833 26.8485 192.728 27.2864 192.728V194.029C26.9134 194.029 26.5607 194.082 26.2282 194.187C25.9039 194.284 25.6404 194.446 25.4377 194.674C25.235 194.901 25.1336 195.201 25.1336 195.574L24.6715 195.598ZM23.7715 198.833V192.752H25.1336V198.833H23.7715ZM30.6587 198.979C30.0668 198.979 29.5398 198.845 29.0776 198.578C28.6236 198.302 28.2628 197.925 27.9952 197.447C27.7357 196.968 27.606 196.417 27.606 195.792C27.606 195.168 27.7398 194.617 28.0074 194.138C28.2749 193.66 28.6398 193.287 29.102 193.019C29.5722 192.744 30.1074 192.606 30.7074 192.606C31.2506 192.606 31.7371 192.748 32.1669 193.032C32.6047 193.307 32.9534 193.709 33.2128 194.236C33.4723 194.763 33.602 195.391 33.602 196.121H32.2277C32.2277 195.594 32.1628 195.16 32.0331 194.819C31.9114 194.479 31.7331 194.228 31.4979 194.065C31.2709 193.895 30.9912 193.81 30.6587 193.81C30.3101 193.81 30.0101 193.887 29.7587 194.041C29.5074 194.195 29.3168 194.422 29.1871 194.722C29.0574 195.014 28.9925 195.383 28.9925 195.829C28.9925 196.226 29.0695 196.567 29.2236 196.851C29.3858 197.134 29.6006 197.353 29.8682 197.507C30.1439 197.653 30.4479 197.726 30.7804 197.726C31.1452 197.726 31.4452 197.645 31.6804 197.483C31.9155 197.313 32.0979 197.098 32.2277 196.838L33.4804 197.374C33.3101 197.698 33.0912 197.982 32.8236 198.225C32.5642 198.468 32.252 198.655 31.8871 198.784C31.5304 198.914 31.1209 198.979 30.6587 198.979ZM28.506 196.121V195.038H32.8844V196.121H28.506ZM38.0872 198.833L38.0264 197.69V195.707C38.0264 195.294 37.9818 194.949 37.8926 194.674C37.8034 194.398 37.6615 194.187 37.4669 194.041C37.2805 193.895 37.0332 193.822 36.725 193.822C36.4413 193.822 36.1899 193.883 35.971 194.005C35.7521 194.126 35.5696 194.313 35.4237 194.564L34.1831 194.126C34.321 193.859 34.4994 193.607 34.7183 193.372C34.9372 193.137 35.2129 192.951 35.5453 192.813C35.8859 192.675 36.2872 192.606 36.7494 192.606C37.3413 192.606 37.8318 192.715 38.221 192.934C38.6183 193.153 38.9143 193.478 39.1089 193.907C39.3034 194.337 39.4007 194.868 39.4007 195.501L39.3643 198.833H38.0872ZM36.3602 198.979C35.6304 198.979 35.0629 198.817 34.6575 198.492C34.2602 198.168 34.0615 197.71 34.0615 197.118C34.0615 196.486 34.2723 196.003 34.6939 195.671C35.1237 195.338 35.7196 195.172 36.4818 195.172H38.1115V196.218H36.9196C36.3764 196.218 35.9953 196.295 35.7764 196.449C35.5575 196.595 35.448 196.806 35.448 197.082C35.448 197.317 35.5413 197.503 35.7277 197.641C35.9223 197.771 36.1899 197.836 36.5305 197.836C36.8305 197.836 37.0899 197.767 37.3088 197.629C37.5359 197.483 37.7102 197.297 37.8318 197.069C37.9615 196.834 38.0264 196.583 38.0264 196.315H38.5251C38.5251 197.142 38.3467 197.795 37.9899 198.274C37.6413 198.744 37.098 198.979 36.3602 198.979ZM42.7504 198.979C42.345 198.979 41.972 198.918 41.6315 198.797C41.2909 198.675 40.999 198.505 40.7558 198.286C40.5126 198.059 40.3261 197.795 40.1963 197.495L41.3761 196.972C41.4977 197.199 41.6761 197.39 41.9112 197.544C42.1545 197.698 42.422 197.775 42.7139 197.775C43.0301 197.775 43.2815 197.722 43.468 197.617C43.6626 197.503 43.7599 197.349 43.7599 197.155C43.7599 196.968 43.6869 196.826 43.541 196.729C43.395 196.624 43.1883 196.538 42.9207 196.474L42.3491 196.315C41.7734 196.169 41.3234 195.938 40.999 195.622C40.6747 195.298 40.5126 194.929 40.5126 194.515C40.5126 193.907 40.7071 193.437 41.0963 193.105C41.4936 192.772 42.0612 192.606 42.7991 192.606C43.172 192.606 43.5126 192.663 43.8207 192.776C44.1369 192.882 44.4085 193.036 44.6356 193.238C44.8626 193.433 45.0207 193.664 45.1099 193.932L43.9788 194.442C43.8977 194.24 43.7437 194.086 43.5166 193.98C43.2896 193.867 43.0382 193.81 42.7626 193.81C42.4869 193.81 42.272 193.871 42.118 193.992C41.9639 194.106 41.8869 194.268 41.8869 194.479C41.8869 194.601 41.9558 194.714 42.0936 194.819C42.2315 194.917 42.4301 194.998 42.6896 195.063L43.4072 195.233C43.8045 195.33 44.1288 195.484 44.3802 195.695C44.6315 195.898 44.818 196.129 44.9396 196.388C45.0612 196.64 45.1221 196.895 45.1221 197.155C45.1221 197.519 45.0166 197.84 44.8058 198.115C44.6031 198.391 44.3234 198.606 43.9666 198.76C43.6099 198.906 43.2045 198.979 42.7504 198.979ZM48.6712 198.979C48.0794 198.979 47.5523 198.845 47.0902 198.578C46.6361 198.302 46.2753 197.925 46.0077 197.447C45.7482 196.968 45.6185 196.417 45.6185 195.792C45.6185 195.168 45.7523 194.617 46.0199 194.138C46.2874 193.66 46.6523 193.287 47.1145 193.019C47.5848 192.744 48.1199 192.606 48.7199 192.606C49.2631 192.606 49.7496 192.748 50.1794 193.032C50.6172 193.307 50.9659 193.709 51.2253 194.236C51.4848 194.763 51.6145 195.391 51.6145 196.121H50.2402C50.2402 195.594 50.1753 195.16 50.0456 194.819C49.924 194.479 49.7456 194.228 49.5104 194.065C49.2834 193.895 49.0037 193.81 48.6712 193.81C48.3226 193.81 48.0226 193.887 47.7712 194.041C47.5199 194.195 47.3293 194.422 47.1996 194.722C47.0699 195.014 47.005 195.383 47.005 195.829C47.005 196.226 47.082 196.567 47.2361 196.851C47.3983 197.134 47.6131 197.353 47.8807 197.507C48.1564 197.653 48.4604 197.726 48.7929 197.726C49.1577 197.726 49.4577 197.645 49.6929 197.483C49.928 197.313 50.1105 197.098 50.2402 196.838L51.4929 197.374C51.3226 197.698 51.1037 197.982 50.8361 198.225C50.5767 198.468 50.2645 198.655 49.8996 198.784C49.5429 198.914 49.1334 198.979 48.6712 198.979ZM46.5185 196.121V195.038H50.8969V196.121H46.5185ZM59.1429 198.979C58.2996 198.979 57.5537 198.792 56.905 198.419C56.2564 198.047 55.7455 197.528 55.3726 196.863C55.0077 196.198 54.8253 195.436 54.8253 194.576C54.8253 193.717 55.0077 192.959 55.3726 192.302C55.7455 191.637 56.2523 191.118 56.8928 190.745C57.5334 190.364 58.2712 190.173 59.1064 190.173C59.9496 190.173 60.6915 190.364 61.3321 190.745C61.9807 191.118 62.4834 191.637 62.8402 192.302C63.2051 192.959 63.3875 193.717 63.3875 194.576C63.3875 195.436 63.2051 196.198 62.8402 196.863C62.4834 197.528 61.9848 198.047 61.3442 198.419C60.7118 198.792 59.978 198.979 59.1429 198.979ZM59.1429 197.69C59.6942 197.69 60.1807 197.556 60.6023 197.288C61.024 197.021 61.3523 196.656 61.5875 196.194C61.8307 195.724 61.9524 195.184 61.9524 194.576C61.9524 193.976 61.8307 193.441 61.5875 192.971C61.3442 192.501 61.0077 192.136 60.578 191.876C60.1564 191.609 59.6658 191.475 59.1064 191.475C58.555 191.475 58.0645 191.609 57.6347 191.876C57.2131 192.136 56.8766 192.501 56.6253 192.971C56.382 193.433 56.2604 193.968 56.2604 194.576C56.2604 195.184 56.382 195.724 56.6253 196.194C56.8766 196.656 57.2172 197.021 57.6469 197.288C58.0848 197.556 58.5834 197.69 59.1429 197.69ZM65.2873 195.598C65.2873 194.941 65.413 194.402 65.6643 193.98C65.9157 193.559 66.24 193.246 66.6373 193.044C67.0427 192.833 67.4643 192.728 67.9022 192.728V194.029C67.5292 194.029 67.1765 194.082 66.8441 194.187C66.5197 194.284 66.2562 194.446 66.0535 194.674C65.8508 194.901 65.7495 195.201 65.7495 195.574L65.2873 195.598ZM64.3873 198.833V192.752H65.7495V198.833H64.3873ZM72.9529 198.833L72.8921 197.702V190.319H74.2421V198.833H72.9529ZM70.9705 198.979C70.4191 198.979 69.9367 198.849 69.5232 198.59C69.1178 198.322 68.7975 197.949 68.5624 197.471C68.3353 196.992 68.2218 196.433 68.2218 195.792C68.2218 195.144 68.3353 194.584 68.5624 194.114C68.7975 193.636 69.1178 193.267 69.5232 193.007C69.9367 192.74 70.4191 192.606 70.9705 192.606C71.4813 192.606 71.9191 192.74 72.284 193.007C72.657 193.267 72.9408 193.636 73.1354 194.114C73.33 194.584 73.4273 195.144 73.4273 195.792C73.4273 196.433 73.33 196.992 73.1354 197.471C72.9408 197.949 72.657 198.322 72.284 198.59C71.9191 198.849 71.4813 198.979 70.9705 198.979ZM71.311 197.738C71.6191 197.738 71.8908 197.657 72.1259 197.495C72.3691 197.325 72.5556 197.094 72.6854 196.802C72.8232 196.51 72.8921 196.174 72.8921 195.792C72.8921 195.411 72.8232 195.075 72.6854 194.783C72.5556 194.491 72.3691 194.264 72.1259 194.102C71.8908 193.94 71.6151 193.859 71.2989 193.859C70.9745 193.859 70.6867 193.94 70.4353 194.102C70.184 194.264 69.9853 194.491 69.8394 194.783C69.7016 195.075 69.6286 195.411 69.6205 195.792C69.6286 196.174 69.7016 196.51 69.8394 196.802C69.9853 197.094 70.184 197.325 70.4353 197.495C70.6948 197.657 70.9867 197.738 71.311 197.738ZM78.217 198.979C77.6251 198.979 77.0981 198.845 76.6359 198.578C76.1819 198.302 75.8211 197.925 75.5535 197.447C75.294 196.968 75.1643 196.417 75.1643 195.792C75.1643 195.168 75.2981 194.617 75.5656 194.138C75.8332 193.66 76.1981 193.287 76.6602 193.019C77.1305 192.744 77.6657 192.606 78.2657 192.606C78.8089 192.606 79.2954 192.748 79.7251 193.032C80.163 193.307 80.5116 193.709 80.7711 194.236C81.0306 194.763 81.1603 195.391 81.1603 196.121H79.786C79.786 195.594 79.7211 195.16 79.5914 194.819C79.4697 194.479 79.2914 194.228 79.0562 194.065C78.8292 193.895 78.5495 193.81 78.217 193.81C77.8684 193.81 77.5684 193.887 77.317 194.041C77.0657 194.195 76.8751 194.422 76.7454 194.722C76.6157 195.014 76.5508 195.383 76.5508 195.829C76.5508 196.226 76.6278 196.567 76.7819 196.851C76.944 197.134 77.1589 197.353 77.4265 197.507C77.7021 197.653 78.0062 197.726 78.3386 197.726C78.7035 197.726 79.0035 197.645 79.2386 197.483C79.4738 197.313 79.6562 197.098 79.786 196.838L81.0387 197.374C80.8684 197.698 80.6495 197.982 80.3819 198.225C80.1224 198.468 79.8103 198.655 79.4454 198.784C79.0886 198.914 78.6792 198.979 78.217 198.979ZM76.0643 196.121V195.038H80.4427V196.121H76.0643ZM82.8603 195.598C82.8603 194.941 82.986 194.402 83.2374 193.98C83.4887 193.559 83.8131 193.246 84.2104 193.044C84.6158 192.833 85.0374 192.728 85.4752 192.728V194.029C85.1023 194.029 84.7496 194.082 84.4171 194.187C84.0928 194.284 83.8293 194.446 83.6266 194.674C83.4239 194.901 83.3225 195.201 83.3225 195.574L82.8603 195.598ZM81.9603 198.833V192.752H83.3225V198.833H81.9603ZM88.3489 198.979C87.9435 198.979 87.5706 198.918 87.23 198.797C86.8895 198.675 86.5976 198.505 86.3543 198.286C86.1111 198.059 85.9246 197.795 85.7949 197.495L86.9746 196.972C87.0962 197.199 87.2746 197.39 87.5098 197.544C87.753 197.698 88.0206 197.775 88.3125 197.775C88.6287 197.775 88.88 197.722 89.0665 197.617C89.2611 197.503 89.3584 197.349 89.3584 197.155C89.3584 196.968 89.2854 196.826 89.1395 196.729C88.9936 196.624 88.7868 196.538 88.5192 196.474L87.9476 196.315C87.3719 196.169 86.9219 195.938 86.5976 195.622C86.2733 195.298 86.1111 194.929 86.1111 194.515C86.1111 193.907 86.3057 193.437 86.6949 193.105C87.0922 192.772 87.6598 192.606 88.3976 192.606C88.7706 192.606 89.1111 192.663 89.4192 192.776C89.7354 192.882 90.0071 193.036 90.2341 193.238C90.4611 193.433 90.6192 193.664 90.7084 193.932L89.5773 194.442C89.4963 194.24 89.3422 194.086 89.1152 193.98C88.8881 193.867 88.6368 193.81 88.3611 193.81C88.0854 193.81 87.8706 193.871 87.7165 193.992C87.5625 194.106 87.4854 194.268 87.4854 194.479C87.4854 194.601 87.5543 194.714 87.6922 194.819C87.83 194.917 88.0287 194.998 88.2881 195.063L89.0057 195.233C89.403 195.33 89.7273 195.484 89.9787 195.695C90.23 195.898 90.4165 196.129 90.5382 196.388C90.6598 196.64 90.7206 196.895 90.7206 197.155C90.7206 197.519 90.6152 197.84 90.4044 198.115C90.2017 198.391 89.9219 198.606 89.5652 198.76C89.2084 198.906 88.803 198.979 88.3489 198.979Z" fill="white"/>
<g clip-path="url(#clip2_4749_9604)">
<mask id="path-29-inside-1_4749_9604" fill="white">
<path d="M7 203H34.5278V288.138H7V203Z"/>
</mask>
<path d="M34.2643 203V288.138H34.7914V203H34.2643Z" fill="white" fill-opacity="0.1" mask="url(#path-29-inside-1_4749_9604)"/>
<mask id="path-31-inside-2_4749_9604" fill="white">
<path d="M7 203H34.5278V211.433H7V203Z"/>
</mask>
<path d="M34.5278 211.169H7V211.696H34.5278V211.169Z" fill="white" fill-opacity="0.1" mask="url(#path-31-inside-2_4749_9604)"/>
<mask id="path-33-inside-3_4749_9604" fill="white">
<path d="M7 211.433H34.5278V219.865H7V211.433Z"/>
</mask>
<path d="M34.5278 219.602H7V220.129H34.5278V219.602Z" fill="white" fill-opacity="0.1" mask="url(#path-33-inside-3_4749_9604)"/>
<mask id="path-35-inside-4_4749_9604" fill="white">
<path d="M7 219.865H34.5278V228.298H7V219.865Z"/>
</mask>
<path d="M34.5278 228.034H7V228.561H34.5278V228.034Z" fill="white" fill-opacity="0.1" mask="url(#path-35-inside-4_4749_9604)"/>
<mask id="path-37-inside-5_4749_9604" fill="white">
<path d="M7 228.298H34.5278V236.731H7V228.298Z"/>
</mask>
<path d="M34.5278 236.467H7V236.994H34.5278V236.467Z" fill="white" fill-opacity="0.1" mask="url(#path-37-inside-5_4749_9604)"/>
<mask id="path-39-inside-6_4749_9604" fill="white">
<path d="M7 236.73H34.5278V245.163H7V236.73Z"/>
</mask>
<path d="M34.5278 244.9H7V245.427H34.5278V244.9Z" fill="white" fill-opacity="0.1" mask="url(#path-39-inside-6_4749_9604)"/>
<mask id="path-41-inside-7_4749_9604" fill="white">
<path d="M7 245.163H34.5278V253.596H7V245.163Z"/>
</mask>
<path d="M34.5278 253.332H7V253.859H34.5278V253.332Z" fill="white" fill-opacity="0.1" mask="url(#path-41-inside-7_4749_9604)"/>
<mask id="path-43-inside-8_4749_9604" fill="white">
<path d="M7 253.596H34.5278V262.028H7V253.596Z"/>
</mask>
<path d="M34.5278 261.765H7V262.292H34.5278V261.765Z" fill="white" fill-opacity="0.1" mask="url(#path-43-inside-8_4749_9604)"/>
<mask id="path-45-inside-9_4749_9604" fill="white">
<path d="M7 262.028H34.5278V270.461H7V262.028Z"/>
</mask>
<path d="M34.5278 270.197H7V270.725H34.5278V270.197Z" fill="white" fill-opacity="0.1" mask="url(#path-45-inside-9_4749_9604)"/>
<mask id="path-47-inside-10_4749_9604" fill="white">
<path d="M7 270.462H34.5278V278.895H7V270.462Z"/>
</mask>
<path d="M34.5278 278.631H7V279.158H34.5278V278.631Z" fill="white" fill-opacity="0.1" mask="url(#path-47-inside-10_4749_9604)"/>
<mask id="path-49-inside-11_4749_9604" fill="white">
<path d="M7 278.895H34.5278V287.327H7V278.895Z"/>
</mask>
<path d="M34.5278 287.064H7V287.591H34.5278V287.064Z" fill="white" fill-opacity="0.1" mask="url(#path-49-inside-11_4749_9604)"/>
<mask id="path-51-inside-12_4749_9604" fill="white">
<path d="M34.5273 203H62.0552V288.138H34.5273V203Z"/>
</mask>
<path d="M61.7917 203V288.138H62.3187V203H61.7917Z" fill="white" fill-opacity="0.1" mask="url(#path-51-inside-12_4749_9604)"/>
<mask id="path-53-inside-13_4749_9604" fill="white">
<path d="M34.5273 203H62.0552V211.433H34.5273V203Z"/>
</mask>
<path d="M62.0552 211.169H34.5273V211.696H62.0552V211.169Z" fill="white" fill-opacity="0.1" mask="url(#path-53-inside-13_4749_9604)"/>
<mask id="path-55-inside-14_4749_9604" fill="white">
<path d="M34.5273 211.433H62.0552V219.865H34.5273V211.433Z"/>
</mask>
<path d="M62.0552 219.602H34.5273V220.129H62.0552V219.602Z" fill="white" fill-opacity="0.1" mask="url(#path-55-inside-14_4749_9604)"/>
<mask id="path-57-inside-15_4749_9604" fill="white">
<path d="M34.5273 219.865H62.0552V228.298H34.5273V219.865Z"/>
</mask>
<path d="M62.0552 228.034H34.5273V228.561H62.0552V228.034Z" fill="white" fill-opacity="0.1" mask="url(#path-57-inside-15_4749_9604)"/>
<mask id="path-59-inside-16_4749_9604" fill="white">
<path d="M34.5273 228.298H62.0552V236.731H34.5273V228.298Z"/>
</mask>
<path d="M62.0552 236.467H34.5273V236.994H62.0552V236.467Z" fill="white" fill-opacity="0.1" mask="url(#path-59-inside-16_4749_9604)"/>
<mask id="path-61-inside-17_4749_9604" fill="white">
<path d="M34.5273 236.73H62.0552V245.163H34.5273V236.73Z"/>
</mask>
<path d="M62.0552 244.9H34.5273V245.427H62.0552V244.9Z" fill="white" fill-opacity="0.1" mask="url(#path-61-inside-17_4749_9604)"/>
<mask id="path-63-inside-18_4749_9604" fill="white">
<path d="M34.5273 245.163H62.0552V253.596H34.5273V245.163Z"/>
</mask>
<path d="M62.0552 253.332H34.5273V253.859H62.0552V253.332Z" fill="white" fill-opacity="0.1" mask="url(#path-63-inside-18_4749_9604)"/>
<mask id="path-65-inside-19_4749_9604" fill="white">
<path d="M34.5273 253.596H62.0552V262.028H34.5273V253.596Z"/>
</mask>
<path d="M62.0552 261.765H34.5273V262.292H62.0552V261.765Z" fill="white" fill-opacity="0.1" mask="url(#path-65-inside-19_4749_9604)"/>
<mask id="path-67-inside-20_4749_9604" fill="white">
<path d="M34.5273 262.028H62.0552V270.461H34.5273V262.028Z"/>
</mask>
<path d="M62.0552 270.197H34.5273V270.725H62.0552V270.197Z" fill="white" fill-opacity="0.1" mask="url(#path-67-inside-20_4749_9604)"/>
<mask id="path-69-inside-21_4749_9604" fill="white">
<path d="M34.5273 270.462H62.0552V278.895H34.5273V270.462Z"/>
</mask>
<path d="M62.0552 278.631H34.5273V279.158H62.0552V278.631Z" fill="white" fill-opacity="0.1" mask="url(#path-69-inside-21_4749_9604)"/>
<mask id="path-71-inside-22_4749_9604" fill="white">
<path d="M34.5273 278.895H62.0552V287.327H34.5273V278.895Z"/>
</mask>
<path d="M62.0552 287.064H34.5273V287.591H62.0552V287.064Z" fill="white" fill-opacity="0.1" mask="url(#path-71-inside-22_4749_9604)"/>
<mask id="path-73-inside-23_4749_9604" fill="white">
<path d="M62.0547 203H89.5825V288.138H62.0547V203Z"/>
</mask>
<path d="M89.319 203V288.138H89.846V203H89.319Z" fill="white" fill-opacity="0.1" mask="url(#path-73-inside-23_4749_9604)"/>
<mask id="path-75-inside-24_4749_9604" fill="white">
<path d="M62.0547 203H89.5825V211.433H62.0547V203Z"/>
</mask>
<path d="M89.5825 211.169H62.0547V211.696H89.5825V211.169Z" fill="white" fill-opacity="0.1" mask="url(#path-75-inside-24_4749_9604)"/>
<mask id="path-77-inside-25_4749_9604" fill="white">
<path d="M62.0547 211.433H89.5825V219.865H62.0547V211.433Z"/>
</mask>
<path d="M89.5825 219.602H62.0547V220.129H89.5825V219.602Z" fill="white" fill-opacity="0.1" mask="url(#path-77-inside-25_4749_9604)"/>
<mask id="path-79-inside-26_4749_9604" fill="white">
<path d="M62.0547 219.865H89.5825V228.298H62.0547V219.865Z"/>
</mask>
<path d="M89.5825 228.034H62.0547V228.561H89.5825V228.034Z" fill="white" fill-opacity="0.1" mask="url(#path-79-inside-26_4749_9604)"/>
<mask id="path-81-inside-27_4749_9604" fill="white">
<path d="M62.0547 228.298H89.5825V236.731H62.0547V228.298Z"/>
</mask>
<path d="M89.5825 236.467H62.0547V236.994H89.5825V236.467Z" fill="white" fill-opacity="0.1" mask="url(#path-81-inside-27_4749_9604)"/>
<mask id="path-83-inside-28_4749_9604" fill="white">
<path d="M62.0547 236.73H89.5825V245.163H62.0547V236.73Z"/>
</mask>
<path d="M89.5825 244.9H62.0547V245.427H89.5825V244.9Z" fill="white" fill-opacity="0.1" mask="url(#path-83-inside-28_4749_9604)"/>
<mask id="path-85-inside-29_4749_9604" fill="white">
<path d="M62.0547 245.163H89.5825V253.596H62.0547V245.163Z"/>
</mask>
<path d="M89.5825 253.332H62.0547V253.859H89.5825V253.332Z" fill="white" fill-opacity="0.1" mask="url(#path-85-inside-29_4749_9604)"/>
<mask id="path-87-inside-30_4749_9604" fill="white">
<path d="M62.0547 253.596H89.5825V262.028H62.0547V253.596Z"/>
</mask>
<path d="M89.5825 261.765H62.0547V262.292H89.5825V261.765Z" fill="white" fill-opacity="0.1" mask="url(#path-87-inside-30_4749_9604)"/>
<mask id="path-89-inside-31_4749_9604" fill="white">
<path d="M62.0547 262.028H89.5825V270.461H62.0547V262.028Z"/>
</mask>
<path d="M89.5825 270.197H62.0547V270.725H89.5825V270.197Z" fill="white" fill-opacity="0.1" mask="url(#path-89-inside-31_4749_9604)"/>
<mask id="path-91-inside-32_4749_9604" fill="white">
<path d="M62.0547 270.462H89.5825V278.895H62.0547V270.462Z"/>
</mask>
<path d="M89.5825 278.631H62.0547V279.158H89.5825V278.631Z" fill="white" fill-opacity="0.1" mask="url(#path-91-inside-32_4749_9604)"/>
<mask id="path-93-inside-33_4749_9604" fill="white">
<path d="M62.0547 278.895H89.5825V287.327H62.0547V278.895Z"/>
</mask>
<path d="M89.5825 287.064H62.0547V287.591H89.5825V287.064Z" fill="white" fill-opacity="0.1" mask="url(#path-93-inside-33_4749_9604)"/>
<mask id="path-95-inside-34_4749_9604" fill="white">
<path d="M89.584 203H117.112V288.138H89.584V203Z"/>
</mask>
<path d="M116.848 203V288.138H117.375V203H116.848Z" fill="white" fill-opacity="0.1" mask="url(#path-95-inside-34_4749_9604)"/>
<mask id="path-97-inside-35_4749_9604" fill="white">
<path d="M89.584 203H117.112V211.433H89.584V203Z"/>
</mask>
<path d="M117.112 211.169H89.584V211.696H117.112V211.169Z" fill="white" fill-opacity="0.1" mask="url(#path-97-inside-35_4749_9604)"/>
<mask id="path-99-inside-36_4749_9604" fill="white">
<path d="M89.584 211.433H117.112V219.865H89.584V211.433Z"/>
</mask>
<path d="M117.112 219.602H89.584V220.129H117.112V219.602Z" fill="white" fill-opacity="0.1" mask="url(#path-99-inside-36_4749_9604)"/>
<mask id="path-101-inside-37_4749_9604" fill="white">
<path d="M89.584 219.865H117.112V228.298H89.584V219.865Z"/>
</mask>
<path d="M117.112 228.034H89.584V228.561H117.112V228.034Z" fill="white" fill-opacity="0.1" mask="url(#path-101-inside-37_4749_9604)"/>
<mask id="path-103-inside-38_4749_9604" fill="white">
<path d="M89.584 228.298H117.112V236.731H89.584V228.298Z"/>
</mask>
<path d="M117.112 236.467H89.584V236.994H117.112V236.467Z" fill="white" fill-opacity="0.1" mask="url(#path-103-inside-38_4749_9604)"/>
<mask id="path-105-inside-39_4749_9604" fill="white">
<path d="M89.584 236.73H117.112V245.163H89.584V236.73Z"/>
</mask>
<path d="M117.112 244.9H89.584V245.427H117.112V244.9Z" fill="white" fill-opacity="0.1" mask="url(#path-105-inside-39_4749_9604)"/>
<mask id="path-107-inside-40_4749_9604" fill="white">
<path d="M89.584 245.163H117.112V253.596H89.584V245.163Z"/>
</mask>
<path d="M117.112 253.332H89.584V253.859H117.112V253.332Z" fill="white" fill-opacity="0.1" mask="url(#path-107-inside-40_4749_9604)"/>
<mask id="path-109-inside-41_4749_9604" fill="white">
<path d="M89.584 253.596H117.112V262.028H89.584V253.596Z"/>
</mask>
<path d="M117.112 261.765H89.584V262.292H117.112V261.765Z" fill="white" fill-opacity="0.1" mask="url(#path-109-inside-41_4749_9604)"/>
<mask id="path-111-inside-42_4749_9604" fill="white">
<path d="M89.584 262.028H117.112V270.461H89.584V262.028Z"/>
</mask>
<path d="M117.112 270.197H89.584V270.725H117.112V270.197Z" fill="white" fill-opacity="0.1" mask="url(#path-111-inside-42_4749_9604)"/>
<mask id="path-113-inside-43_4749_9604" fill="white">
<path d="M89.584 270.462H117.112V278.895H89.584V270.462Z"/>
</mask>
<path d="M117.112 278.631H89.584V279.158H117.112V278.631Z" fill="white" fill-opacity="0.1" mask="url(#path-113-inside-43_4749_9604)"/>
<mask id="path-115-inside-44_4749_9604" fill="white">
<path d="M89.584 278.895H117.112V287.327H89.584V278.895Z"/>
</mask>
<path d="M117.112 287.064H89.584V287.591H117.112V287.064Z" fill="white" fill-opacity="0.1" mask="url(#path-115-inside-44_4749_9604)"/>
<mask id="path-117-inside-45_4749_9604" fill="white">
<path d="M117.111 203H144.639V288.138H117.111V203Z"/>
</mask>
<path d="M144.376 203V288.138H144.903V203H144.376Z" fill="white" fill-opacity="0.1" mask="url(#path-117-inside-45_4749_9604)"/>
<mask id="path-119-inside-46_4749_9604" fill="white">
<path d="M117.111 203H144.639V211.433H117.111V203Z"/>
</mask>
<path d="M144.639 211.169H117.111V211.696H144.639V211.169Z" fill="white" fill-opacity="0.1" mask="url(#path-119-inside-46_4749_9604)"/>
<mask id="path-121-inside-47_4749_9604" fill="white">
<path d="M117.111 211.433H144.639V219.865H117.111V211.433Z"/>
</mask>
<path d="M144.639 219.602H117.111V220.129H144.639V219.602Z" fill="white" fill-opacity="0.1" mask="url(#path-121-inside-47_4749_9604)"/>
<mask id="path-123-inside-48_4749_9604" fill="white">
<path d="M117.111 219.865H144.639V228.298H117.111V219.865Z"/>
</mask>
<path d="M144.639 228.034H117.111V228.561H144.639V228.034Z" fill="white" fill-opacity="0.1" mask="url(#path-123-inside-48_4749_9604)"/>
<mask id="path-125-inside-49_4749_9604" fill="white">
<path d="M117.111 228.298H144.639V236.731H117.111V228.298Z"/>
</mask>
<path d="M144.639 236.467H117.111V236.994H144.639V236.467Z" fill="white" fill-opacity="0.1" mask="url(#path-125-inside-49_4749_9604)"/>
<mask id="path-127-inside-50_4749_9604" fill="white">
<path d="M117.111 236.73H144.639V245.163H117.111V236.73Z"/>
</mask>
<path d="M144.639 244.9H117.111V245.427H144.639V244.9Z" fill="white" fill-opacity="0.1" mask="url(#path-127-inside-50_4749_9604)"/>
<mask id="path-129-inside-51_4749_9604" fill="white">
<path d="M117.111 245.163H144.639V253.596H117.111V245.163Z"/>
</mask>
<path d="M144.639 253.332H117.111V253.859H144.639V253.332Z" fill="white" fill-opacity="0.1" mask="url(#path-129-inside-51_4749_9604)"/>
<mask id="path-131-inside-52_4749_9604" fill="white">
<path d="M117.111 253.596H144.639V262.028H117.111V253.596Z"/>
</mask>
<path d="M144.639 261.765H117.111V262.292H144.639V261.765Z" fill="white" fill-opacity="0.1" mask="url(#path-131-inside-52_4749_9604)"/>
<mask id="path-133-inside-53_4749_9604" fill="white">
<path d="M117.111 262.028H144.639V270.461H117.111V262.028Z"/>
</mask>
<path d="M144.639 270.197H117.111V270.725H144.639V270.197Z" fill="white" fill-opacity="0.1" mask="url(#path-133-inside-53_4749_9604)"/>
<mask id="path-135-inside-54_4749_9604" fill="white">
<path d="M117.111 270.462H144.639V278.895H117.111V270.462Z"/>
</mask>
<path d="M144.639 278.631H117.111V279.158H144.639V278.631Z" fill="white" fill-opacity="0.1" mask="url(#path-135-inside-54_4749_9604)"/>
<mask id="path-137-inside-55_4749_9604" fill="white">
<path d="M117.111 278.895H144.639V287.327H117.111V278.895Z"/>
</mask>
<path d="M144.639 287.064H117.111V287.591H144.639V287.064Z" fill="white" fill-opacity="0.1" mask="url(#path-137-inside-55_4749_9604)"/>
<mask id="path-139-inside-56_4749_9604" fill="white">
<path d="M144.639 203H172.167V288.138H144.639V203Z"/>
</mask>
<path d="M171.903 203V288.138H172.43V203H171.903Z" fill="white" fill-opacity="0.1" mask="url(#path-139-inside-56_4749_9604)"/>
<mask id="path-141-inside-57_4749_9604" fill="white">
<path d="M144.639 203H172.167V211.433H144.639V203Z"/>
</mask>
<path d="M172.167 211.169H144.639V211.696H172.167V211.169Z" fill="white" fill-opacity="0.1" mask="url(#path-141-inside-57_4749_9604)"/>
<mask id="path-143-inside-58_4749_9604" fill="white">
<path d="M144.639 211.433H172.167V219.865H144.639V211.433Z"/>
</mask>
<path d="M172.167 219.602H144.639V220.129H172.167V219.602Z" fill="white" fill-opacity="0.1" mask="url(#path-143-inside-58_4749_9604)"/>
<path d="M161.35 219.399C161.629 219.399 161.896 219.51 162.093 219.707C162.29 219.904 162.4 220.171 162.4 220.449V220.799C162.4 222.179 161.098 223.599 158.9 223.599C156.702 223.599 155.4 222.179 155.4 220.799V220.449C155.4 220.171 155.511 219.904 155.708 219.707C155.905 219.51 156.172 219.399 156.45 219.399H161.35ZM158.9 214.849C159.411 214.849 159.901 215.052 160.262 215.413C160.623 215.774 160.825 216.264 160.825 216.774C160.825 217.285 160.623 217.775 160.262 218.136C159.901 218.497 159.411 218.699 158.9 218.699C158.39 218.699 157.9 218.497 157.539 218.136C157.178 217.775 156.975 217.285 156.975 216.774C156.975 216.264 157.178 215.774 157.539 215.413C157.9 215.052 158.39 214.849 158.9 214.849ZM165.2 212.399C165.553 212.399 165.893 212.533 166.152 212.773C166.411 213.013 166.57 213.342 166.596 213.694L166.6 213.799V215.199C166.601 215.553 166.467 215.893 166.227 216.152C165.987 216.411 165.658 216.569 165.305 216.596L165.2 216.599H164.15L163.311 217.719C162.94 218.214 162.188 218.013 162.067 217.456L162.055 217.379L162.05 217.299V216.554L161.996 216.54C161.744 216.464 161.519 216.319 161.346 216.12C161.173 215.922 161.059 215.68 161.018 215.42L161.004 215.304L161 215.199V213.799C161 213.446 161.134 213.106 161.374 212.847C161.614 212.588 161.943 212.429 162.295 212.403L162.4 212.399H165.2Z" fill="url(#paint6_linear_4749_9604)"/>
<mask id="path-146-inside-59_4749_9604" fill="white">
<path d="M144.639 219.865H172.167V228.298H144.639V219.865Z"/>
</mask>
<path d="M172.167 228.034H144.639V228.561H172.167V228.034Z" fill="white" fill-opacity="0.1" mask="url(#path-146-inside-59_4749_9604)"/>
<mask id="path-148-inside-60_4749_9604" fill="white">
<path d="M144.639 228.298H172.167V236.731H144.639V228.298Z"/>
</mask>
<path d="M172.167 236.467H144.639V236.994H172.167V236.467Z" fill="white" fill-opacity="0.1" mask="url(#path-148-inside-60_4749_9604)"/>
<mask id="path-150-inside-61_4749_9604" fill="white">
<path d="M144.639 236.73H172.167V245.163H144.639V236.73Z"/>
</mask>
<path d="M172.167 244.9H144.639V245.427H172.167V244.9Z" fill="white" fill-opacity="0.1" mask="url(#path-150-inside-61_4749_9604)"/>
<mask id="path-152-inside-62_4749_9604" fill="white">
<path d="M144.639 245.163H172.167V253.596H144.639V245.163Z"/>
</mask>
<path d="M172.167 253.332H144.639V253.859H172.167V253.332Z" fill="white" fill-opacity="0.1" mask="url(#path-152-inside-62_4749_9604)"/>
<mask id="path-154-inside-63_4749_9604" fill="white">
<path d="M144.639 253.596H172.167V262.028H144.639V253.596Z"/>
</mask>
<path d="M172.167 261.765H144.639V262.292H172.167V261.765Z" fill="white" fill-opacity="0.1" mask="url(#path-154-inside-63_4749_9604)"/>
<mask id="path-156-inside-64_4749_9604" fill="white">
<path d="M144.639 262.028H172.167V270.461H144.639V262.028Z"/>
</mask>
<path d="M172.167 270.197H144.639V270.725H172.167V270.197Z" fill="white" fill-opacity="0.1" mask="url(#path-156-inside-64_4749_9604)"/>
<mask id="path-158-inside-65_4749_9604" fill="white">
<path d="M144.639 270.462H172.167V278.895H144.639V270.462Z"/>
</mask>
<path d="M172.167 278.631H144.639V279.158H172.167V278.631Z" fill="white" fill-opacity="0.1" mask="url(#path-158-inside-65_4749_9604)"/>
<mask id="path-160-inside-66_4749_9604" fill="white">
<path d="M144.639 278.895H172.167V287.327H144.639V278.895Z"/>
</mask>
<path d="M172.167 287.064H144.639V287.591H172.167V287.064Z" fill="white" fill-opacity="0.1" mask="url(#path-160-inside-66_4749_9604)"/>
</g>
<rect x="7.2462" y="203.246" width="164.675" height="86.5076" stroke="white" stroke-opacity="0.1" stroke-width="0.492395"/>
<rect x="12.1094" y="258.367" width="18.5775" height="31.6319" fill="url(#paint7_linear_4749_9604)"/>
<rect x="39.7246" y="276.443" width="18.5775" height="13.5565" fill="url(#paint8_linear_4749_9604)"/>
<rect x="67.3398" y="242.301" width="18.5775" height="47.6989" fill="url(#paint9_linear_4749_9604)"/>
<rect x="94.9551" y="262.942" width="18.5775" height="27.0573" fill="url(#paint10_linear_4749_9604)"/>
<rect x="122.57" y="283.975" width="18.5775" height="6.02512" fill="url(#paint11_linear_4749_9604)"/>
<rect x="150.186" y="225.731" width="18.5775" height="64.268" fill="url(#paint12_linear_4749_9604)"/>
</g>
<rect x="0.761881" y="183.762" width="176.476" height="113.476" rx="7.85794" stroke="url(#paint13_radial_4749_9604)" stroke-width="0.476239"/>
<rect x="0.761881" y="183.762" width="176.476" height="113.476" rx="7.85794" stroke="url(#paint14_radial_4749_9604)" stroke-width="0.476239"/>
<rect x="0.761881" y="183.762" width="176.476" height="113.476" rx="7.85794" stroke="url(#paint15_radial_4749_9604)" stroke-width="0.476239"/>
</g>
<defs>
<filter id="filter0_b_4749_9604" x="-19.4786" y="163.521" width="216.957" height="153.957" filterUnits="userSpaceOnUse" color-interpolation-filters="sRGB">
<feFlood flood-opacity="0" result="BackgroundImageFix"/>
<feGaussianBlur in="BackgroundImageFix" stdDeviation="10.001"/>
<feComposite in2="SourceAlpha" operator="in" result="effect1_backgroundBlur_4749_9604"/>
<feBlend mode="normal" in="SourceGraphic" in2="effect1_backgroundBlur_4749_9604" result="shape"/>
</filter>
<linearGradient id="paint0_linear_4749_9604" x1="203" y1="-21.2569" x2="203" y2="261.991" gradientUnits="userSpaceOnUse">
<stop stop-color="white" stop-opacity="0.34"/>
<stop offset="1" stop-color="white" stop-opacity="0"/>
</linearGradient>
<radialGradient id="paint1_radial_4749_9604" cx="0" cy="0" r="1" gradientUnits="userSpaceOnUse" gradientTransform="translate(105.318 180.978) rotate(17.4738) scale(74.2812 145.131)">
<stop stop-color="#9035FF"/>
<stop offset="1" stop-color="#9035FF"/>
</radialGradient>
<radialGradient id="paint2_radial_4749_9604" cx="0" cy="0" r="1" gradientUnits="userSpaceOnUse" gradientTransform="translate(321.868 154.125) rotate(155.223) scale(136.905 347.157)">
<stop stop-color="#0065FF"/>
<stop offset="1" stop-color="#0065FF" stop-opacity="0"/>
</radialGradient>
<radialGradient id="paint3_radial_4749_9604" cx="0" cy="0" r="1" gradientUnits="userSpaceOnUse" gradientTransform="translate(311 205.594) rotate(-160.311) scale(58.4352 124.115)">
<stop stop-color="#7175F2"/>
<stop offset="1" stop-color="#0065FF" stop-opacity="0"/>
</radialGradient>
<linearGradient id="paint4_linear_4749_9604" x1="98.3882" y1="244.5" x2="220.347" y2="128.624" gradientUnits="userSpaceOnUse">
<stop stop-color="#535353"/>
<stop offset="1" stop-color="#3E3E3E"/>
</linearGradient>
<linearGradient id="paint5_linear_4749_9604" x1="1" y1="184" x2="51.4843" y2="338.116" gradientUnits="userSpaceOnUse">
<stop stop-color="white" stop-opacity="0.4"/>
<stop offset="1" stop-color="white" stop-opacity="0"/>
</linearGradient>
<linearGradient id="paint6_linear_4749_9604" x1="154.097" y1="228.966" x2="168.676" y2="227.069" gradientUnits="userSpaceOnUse">
<stop stop-color="#BA7AFF"/>
<stop offset="1" stop-color="#E1E1FB"/>
</linearGradient>
<linearGradient id="paint7_linear_4749_9604" x1="21.4979" y1="256.29" x2="21.4979" y2="292.809" gradientUnits="userSpaceOnUse">
<stop stop-color="#9035FF"/>
<stop offset="1" stop-color="#9035FF" stop-opacity="0"/>
</linearGradient>
<linearGradient id="paint8_linear_4749_9604" x1="49.1131" y1="275.553" x2="49.1131" y2="291.204" gradientUnits="userSpaceOnUse">
<stop stop-color="#9035FF"/>
<stop offset="1" stop-color="#9035FF" stop-opacity="0"/>
</linearGradient>
<linearGradient id="paint9_linear_4749_9604" x1="76.7284" y1="239.169" x2="76.7284" y2="294.236" gradientUnits="userSpaceOnUse">
<stop stop-color="#9035FF"/>
<stop offset="1" stop-color="#9035FF" stop-opacity="0"/>
</linearGradient>
<linearGradient id="paint10_linear_4749_9604" x1="104.344" y1="261.166" x2="104.344" y2="292.403" gradientUnits="userSpaceOnUse">
<stop stop-color="#9035FF"/>
<stop offset="1" stop-color="#9035FF" stop-opacity="0"/>
</linearGradient>
<linearGradient id="paint11_linear_4749_9604" x1="131.959" y1="283.579" x2="131.959" y2="290.535" gradientUnits="userSpaceOnUse">
<stop stop-color="#9035FF"/>
<stop offset="1" stop-color="#9035FF" stop-opacity="0"/>
</linearGradient>
<linearGradient id="paint12_linear_4749_9604" x1="159.574" y1="221.511" x2="159.574" y2="295.708" gradientUnits="userSpaceOnUse">
<stop stop-color="#9035FF"/>
<stop offset="1" stop-color="#9035FF" stop-opacity="0"/>
</linearGradient>
<radialGradient id="paint13_radial_4749_9604" cx="0" cy="0" r="1" gradientUnits="userSpaceOnUse" gradientTransform="translate(89 240.5) rotate(-145.058) scale(136.981 100.138)">
<stop stop-color="white"/>
<stop offset="1" stop-color="white" stop-opacity="0"/>
</radialGradient>
<radialGradient id="paint14_radial_4749_9604" cx="0" cy="0" r="1" gradientUnits="userSpaceOnUse" gradientTransform="translate(89 240.5) rotate(28.8923) scale(120.613 74.1409)">
<stop stop-color="#0C0C0E"/>
<stop offset="1" stop-color="#77798C" stop-opacity="0.2"/>
</radialGradient>
<radialGradient id="paint15_radial_4749_9604" cx="0" cy="0" r="1" gradientUnits="userSpaceOnUse" gradientTransform="translate(89 240.5) rotate(148.162) scale(113.53 76.0479)">
<stop stop-color="#151515"/>
<stop offset="1" stop-color="#151515" stop-opacity="0"/>
</radialGradient>
<clipPath id="clip0_4749_9604">
<rect width="67.5" height="67.5" fill="white" transform="translate(169.25 16.5)"/>
</clipPath>
<clipPath id="clip1_4749_9604">
<rect x="1" y="184" width="176" height="113" rx="7.61982" fill="white"/>
</clipPath>
<clipPath id="clip2_4749_9604">
<rect x="7" y="203" width="165.167" height="87" fill="white"/>
</clipPath>
</defs>
</svg>
