<svg width="42" height="29" viewBox="0 0 42 29" fill="none" xmlns="http://www.w3.org/2000/svg">
<g id="salesforce-logo-vector 1" clip-path="url(#clip0_3076_7192)">
<path id="Vector" d="M17.4758 3.10263C18.7915 1.73775 20.6231 0.891217 22.6488 0.891217C25.3417 0.891217 27.6911 2.38628 28.9422 4.60574C30.0295 4.12208 31.233 3.853 32.4991 3.853C37.356 3.853 41.2936 7.80769 41.2936 12.6858C41.2936 17.5644 37.356 21.5191 32.4991 21.5191C31.9174 21.5194 31.3371 21.4618 30.7669 21.3472C29.6651 23.304 27.5656 24.6261 25.1557 24.6261C24.1469 24.6261 23.1927 24.3941 22.3432 23.9815C21.2263 26.5973 18.6241 28.4314 15.5913 28.4314C12.433 28.4314 9.74132 26.4417 8.70812 23.6512C8.25662 23.7466 7.78882 23.7964 7.30881 23.7964C3.54849 23.7964 0.5 20.7299 0.5 16.9465C0.5 14.4111 1.86967 12.1974 3.90469 11.0131C3.48573 10.0532 3.25269 8.9938 3.25269 7.87998C3.25269 3.529 6.80034 0.00195312 11.1761 0.00195312C13.7451 0.00195312 16.0283 1.21815 17.4758 3.10263Z" fill="#00A1E0"/>
<path id="Vector_2" d="M6.40863 14.745C6.38307 14.8116 6.41794 14.8255 6.42607 14.837C6.50275 14.8926 6.58066 14.9325 6.65911 14.9771C7.07517 15.1969 7.46804 15.2611 7.87887 15.2611C8.71565 15.2611 9.23515 14.8179 9.23515 14.1045V14.0906C9.23515 13.431 8.64885 13.1915 8.09852 13.0185L8.02706 12.9954C7.61214 12.8611 7.25419 12.7455 7.25419 12.4735V12.4591C7.25419 12.2265 7.46338 12.0552 7.78765 12.0552C8.14793 12.0552 8.57563 12.1744 8.85106 12.3259C8.85106 12.3259 8.93183 12.378 8.96147 12.2999C8.97773 12.2583 9.11722 11.8845 9.13175 11.844C9.14743 11.8 9.11954 11.7676 9.09108 11.7502C8.7767 11.5599 8.34202 11.4297 7.89227 11.4297L7.8086 11.4303C7.04271 11.4303 6.5081 11.8908 6.5081 12.551V12.5649C6.5081 13.2609 7.09791 13.4866 7.65057 13.6439L7.73946 13.6711C8.14217 13.7944 8.4891 13.9002 8.4891 14.1826V14.1965C8.4891 14.4546 8.26365 14.6466 7.89986 14.6466C7.75866 14.6466 7.30829 14.6438 6.82191 14.3376C6.76319 14.3035 6.72893 14.2787 6.68361 14.2515C6.6598 14.2364 6.59994 14.2103 6.5738 14.2891L6.40863 14.745ZM18.6589 14.745C18.6333 14.8116 18.6682 14.8255 18.6763 14.837C18.753 14.8926 18.8309 14.9325 18.9093 14.9771C19.3254 15.1969 19.7183 15.2611 20.1291 15.2611C20.9659 15.2611 21.4854 14.8179 21.4854 14.1045V14.0906C21.4854 13.431 20.899 13.1915 20.3487 13.0185L20.2773 12.9954C19.8623 12.8611 19.5043 12.7455 19.5043 12.4735V12.4591C19.5043 12.2265 19.7135 12.0552 20.0378 12.0552C20.3981 12.0552 20.8258 12.1744 21.1013 12.3259C21.1013 12.3259 21.182 12.378 21.2116 12.2999C21.2279 12.2583 21.3674 11.8845 21.3819 11.844C21.3976 11.8 21.3697 11.7676 21.3412 11.7502C21.0269 11.5599 20.5922 11.4297 20.1424 11.4297L20.0587 11.4303C19.2928 11.4303 18.7582 11.8908 18.7582 12.551V12.5649C18.7582 13.2609 19.348 13.4866 19.9007 13.6439L19.9896 13.6711C20.3923 13.7944 20.7398 13.9002 20.7398 14.1826V14.1965C20.7398 14.4546 20.5138 14.6466 20.15 14.6466C20.0088 14.6466 19.5585 14.6438 19.0721 14.3376C19.0134 14.3035 18.9785 14.2798 18.9344 14.2515C18.9192 14.2416 18.8483 14.2144 18.8239 14.2891L18.6589 14.745ZM27.0218 13.3476C27.0218 13.7509 26.9463 14.0685 26.7975 14.293C26.6504 14.5152 26.4279 14.6234 26.1176 14.6234C25.8068 14.6234 25.5854 14.5158 25.4406 14.293C25.2942 14.0691 25.2199 13.7509 25.2199 13.3476C25.2199 12.945 25.2942 12.6279 25.4406 12.4057C25.5854 12.1858 25.8068 12.0788 26.1176 12.0788C26.4279 12.0788 26.6505 12.1858 26.7981 12.4057C26.9463 12.6278 27.0218 12.9449 27.0218 13.3476ZM27.7203 12.6001C27.6517 12.3692 27.5448 12.1656 27.4025 11.996C27.2601 11.8259 27.0799 11.6894 26.8661 11.5899C26.6528 11.491 26.4006 11.4406 26.1176 11.4406C25.834 11.4406 25.5819 11.491 25.3686 11.5899C25.1547 11.6894 24.9746 11.826 24.8316 11.996C24.6899 12.1662 24.5829 12.3698 24.5138 12.6001C24.4458 12.8298 24.4115 13.0809 24.4115 13.3476C24.4115 13.6144 24.4458 13.8661 24.5138 14.0952C24.5829 14.3254 24.6893 14.5291 24.8323 14.6992C24.9746 14.8693 25.1553 15.0053 25.3686 15.1019C25.5824 15.1985 25.834 15.2477 26.1177 15.2477C26.4007 15.2477 26.6523 15.1985 26.8661 15.1019C27.0794 15.0053 27.2601 14.8693 27.4025 14.6992C27.5448 14.5297 27.6517 14.326 27.7204 14.0952C27.789 13.8655 27.8232 13.6138 27.8232 13.3476C27.8232 13.0815 27.7889 12.8298 27.7203 12.6001ZM33.4562 14.5157C33.433 14.448 33.3673 14.4735 33.3673 14.4735C33.2656 14.5123 33.1575 14.5481 33.0425 14.5661C32.9256 14.5839 32.7972 14.5933 32.6595 14.5933C32.3213 14.5933 32.0528 14.4932 31.8605 14.2953C31.6676 14.0974 31.5595 13.7775 31.5606 13.3447C31.5618 12.9506 31.6571 12.6544 31.8285 12.4288C31.9988 12.2043 32.258 12.0891 32.6037 12.0891C32.892 12.0891 33.1116 12.1221 33.3417 12.1944C33.3417 12.1944 33.3969 12.2181 33.423 12.1464C33.484 11.9774 33.5294 11.8565 33.5945 11.6708C33.6131 11.6181 33.5678 11.5956 33.5515 11.5892C33.4608 11.5539 33.247 11.4967 33.0854 11.4723C32.9343 11.4492 32.7577 11.437 32.5613 11.437C32.2678 11.437 32.0063 11.4868 31.7826 11.5863C31.5594 11.6853 31.37 11.8218 31.2201 11.9919C31.0702 12.1621 30.9563 12.3657 30.8802 12.596C30.8046 12.8256 30.7663 13.0779 30.7663 13.3447C30.7663 13.9215 30.9226 14.3878 31.2312 14.7292C31.5403 15.0718 32.0046 15.2459 32.6101 15.2459C32.9681 15.2459 33.3354 15.1736 33.5992 15.07C33.5992 15.07 33.6498 15.0457 33.6277 14.9873L33.4562 14.5157ZM34.6783 12.9613C34.7114 12.7374 34.7736 12.5511 34.8695 12.4059C35.0142 12.1854 35.235 12.0645 35.5454 12.0645C35.8557 12.0645 36.0608 12.186 36.2078 12.4059C36.3055 12.5511 36.3479 12.7455 36.3648 12.9613H34.6783ZM37.0301 12.4689C36.9708 12.2461 36.8238 12.0211 36.7273 11.9181C36.575 11.7549 36.4263 11.6409 36.2787 11.5773C36.0858 11.4951 35.8545 11.4407 35.6011 11.4407C35.306 11.4407 35.038 11.4899 34.8207 11.5917C34.6028 11.6936 34.4198 11.8325 34.2762 12.0055C34.1327 12.1779 34.0246 12.3833 33.956 12.6164C33.8869 12.8485 33.852 13.1013 33.852 13.368C33.852 13.6394 33.8881 13.8922 33.9595 14.1196C34.0316 14.3487 34.1466 14.5506 34.3024 14.7178C34.4575 14.8862 34.6574 15.0182 34.8968 15.1101C35.1345 15.2015 35.4234 15.249 35.7551 15.2484C36.438 15.2461 36.7976 15.0945 36.9458 15.0129C36.972 14.9985 36.997 14.973 36.9655 14.9001L36.811 14.469C36.7878 14.4048 36.7221 14.4285 36.7221 14.4285C36.553 14.491 36.3124 14.6033 35.7516 14.6021C35.385 14.6016 35.113 14.4939 34.9427 14.3255C34.7678 14.1531 34.6824 13.8997 34.6673 13.5421L37.0318 13.5445C37.0318 13.5445 37.0939 13.5433 37.1004 13.4831C37.1027 13.4577 37.1818 12.9995 37.0301 12.4689ZM15.742 12.9613C15.7757 12.7374 15.8373 12.5511 15.9332 12.4059C16.0778 12.1854 16.2987 12.0645 16.609 12.0645C16.9193 12.0645 17.1244 12.186 17.272 12.4059C17.369 12.5511 17.4115 12.7455 17.4283 12.9613H15.742ZM18.0931 12.4689C18.0339 12.2461 17.8874 12.0211 17.791 11.9181C17.6387 11.7549 17.4899 11.6409 17.3424 11.5773C17.1494 11.4951 16.9182 11.4407 16.6648 11.4407C16.3702 11.4407 16.1017 11.4899 15.8844 11.5917C15.6665 11.6936 15.4834 11.8325 15.3399 12.0055C15.1964 12.1779 15.0883 12.3833 15.0197 12.6164C14.9511 12.8485 14.9157 13.1013 14.9157 13.368C14.9157 13.6394 14.9517 13.8922 15.0232 14.1196C15.0953 14.3487 15.2104 14.5506 15.3661 14.7178C15.5212 14.8862 15.7211 15.0182 15.9605 15.1101C16.1982 15.2015 16.487 15.249 16.8188 15.2484C17.5016 15.2461 17.8613 15.0945 18.0095 15.0129C18.0357 14.9985 18.0606 14.973 18.0293 14.9001L17.8753 14.469C17.8515 14.4048 17.7858 14.4285 17.7858 14.4285C17.6167 14.491 17.3767 14.6033 16.8148 14.6021C16.4487 14.6016 16.1768 14.4939 16.0065 14.3255C15.8315 14.1531 15.7462 13.8997 15.731 13.5421L18.0955 13.5445C18.0955 13.5445 18.1577 13.5433 18.1641 13.4831C18.1663 13.4577 18.2453 12.9995 18.0931 12.4689ZM10.6311 14.5028C10.5387 14.4293 10.5259 14.4108 10.4946 14.3634C10.4481 14.2911 10.4242 14.1881 10.4242 14.0573C10.4242 13.8502 10.4928 13.7015 10.6352 13.6014C10.6335 13.602 10.8386 13.4249 11.3209 13.4313C11.6596 13.4359 11.9624 13.4857 11.9624 13.4857V14.5561H11.963C11.963 14.5561 11.6625 14.6203 11.3244 14.6405C10.8432 14.6695 10.6294 14.5023 10.6311 14.5028ZM11.5719 12.8486C11.476 12.8417 11.3516 12.8376 11.2029 12.8376C11.0001 12.8376 10.8042 12.8631 10.6206 12.9123C10.4358 12.9614 10.2696 13.0384 10.1267 13.1402C9.98394 13.2416 9.86662 13.3745 9.78384 13.5284C9.70017 13.6835 9.65774 13.8663 9.65774 14.0712C9.65774 14.2795 9.69376 14.4606 9.76583 14.6087C9.8379 14.7574 9.94191 14.8812 10.0744 14.9767C10.2057 15.0722 10.3679 15.1421 10.5561 15.1844C10.7415 15.2266 10.9518 15.248 11.182 15.248C11.4243 15.248 11.666 15.2284 11.9002 15.1884C12.1321 15.149 12.4168 15.0918 12.4958 15.0739C12.5512 15.0606 12.6064 15.0465 12.6614 15.0316C12.7202 15.0172 12.7155 14.9547 12.7155 14.9547L12.7143 12.8018C12.7143 12.3296 12.5877 11.9795 12.3384 11.7626C12.0902 11.5462 11.7247 11.4368 11.2523 11.4368C11.075 11.4368 10.7897 11.4612 10.6189 11.4953C10.6189 11.4953 10.1023 11.5948 9.88956 11.7603C9.88956 11.7603 9.84309 11.7892 9.86865 11.854L10.036 12.3019C10.0569 12.3597 10.1133 12.3401 10.1133 12.3401C10.1133 12.3401 10.1313 12.3331 10.1523 12.3209C10.6073 12.0745 11.1826 12.082 11.1826 12.082C11.4383 12.082 11.6347 12.1329 11.7672 12.2341C11.8962 12.3325 11.9618 12.4812 11.9618 12.7948V12.8943C11.7584 12.8654 11.5719 12.8486 11.5719 12.8486ZM30.6427 11.6356C30.6607 11.5823 30.623 11.5569 30.6073 11.5511C30.5672 11.5355 30.3661 11.4932 30.211 11.4834C29.9141 11.4655 29.749 11.5152 29.6014 11.5812C29.455 11.6471 29.2923 11.7536 29.2016 11.8745V11.5881C29.2016 11.5482 29.1731 11.5164 29.1336 11.5164H28.5275C28.488 11.5164 28.4595 11.5482 28.4595 11.5881V15.0996C28.4595 15.1389 28.4921 15.1713 28.5316 15.1713H29.1528C29.1718 15.1712 29.19 15.1636 29.2034 15.1502C29.2168 15.1367 29.2243 15.1185 29.2242 15.0996V13.3453C29.2242 13.1098 29.2504 12.8749 29.3027 12.7274C29.3539 12.5816 29.4236 12.4647 29.5096 12.3808C29.5962 12.2975 29.6944 12.2391 29.8019 12.2061C29.9117 12.1725 30.0331 12.1615 30.1192 12.1615C30.2429 12.1615 30.3789 12.1933 30.3789 12.1933C30.4242 12.1985 30.4498 12.1708 30.4649 12.1297C30.5056 12.0221 30.6207 11.6998 30.6427 11.6356Z" fill="white"/>
<path id="Vector_3" d="M24.8118 10.0076C24.7362 9.98445 24.6677 9.9688 24.5782 9.95205C24.4875 9.93587 24.3794 9.92773 24.2569 9.92773C23.8291 9.92773 23.4921 10.0481 23.2556 10.2853C23.0202 10.5214 22.8604 10.8807 22.7802 11.3534L22.7511 11.5125H22.2142C22.2142 11.5125 22.1491 11.5102 22.1352 11.5808L22.0475 12.0708C22.0411 12.1171 22.0614 12.1466 22.1242 12.1466H22.6466L22.1166 15.0928C22.0753 15.33 22.0277 15.525 21.9748 15.6731C21.923 15.8189 21.8725 15.9283 21.8098 16.0081C21.7493 16.0845 21.6924 16.1412 21.5935 16.1742C21.5122 16.2014 21.4181 16.2141 21.3152 16.2141C21.2583 16.2141 21.1822 16.2048 21.1258 16.1932C21.07 16.1822 21.0404 16.1701 20.9979 16.1521C20.9979 16.1521 20.9369 16.129 20.9125 16.1898C20.8933 16.2401 20.7539 16.6214 20.737 16.6683C20.7208 16.7151 20.744 16.7516 20.7736 16.7626C20.8433 16.7869 20.895 16.8031 20.9898 16.8256C21.1211 16.8563 21.2321 16.858 21.3361 16.858C21.5534 16.858 21.7522 16.8274 21.9166 16.7684C22.0817 16.7088 22.2257 16.6052 22.3536 16.4652C22.4913 16.3136 22.5779 16.1551 22.6605 15.9381C22.7424 15.724 22.8127 15.4579 22.8685 15.1478L23.4014 12.1466H24.18C24.18 12.1466 24.2457 12.1489 24.2591 12.0778L24.3474 11.5883C24.3532 11.5415 24.3335 11.5125 24.2701 11.5125H23.5141C23.5182 11.4958 23.5524 11.2307 23.639 10.9814C23.6762 10.8755 23.7459 10.7893 23.8047 10.7303C23.8628 10.6724 23.9296 10.6314 24.0029 10.6076C24.0778 10.5833 24.1633 10.5718 24.2568 10.5718C24.3277 10.5718 24.398 10.5798 24.4509 10.5908C24.5241 10.6065 24.5525 10.6146 24.5718 10.6204C24.6491 10.6435 24.6595 10.6209 24.6746 10.5839L24.8554 10.0898C24.8739 10.0365 24.828 10.0139 24.8118 10.0076ZM14.2487 15.0992C14.2487 15.1385 14.2203 15.1704 14.1808 15.1704H13.5537C13.5142 15.1704 13.4863 15.1385 13.4863 15.0992V10.0747C13.4863 10.0354 13.5142 10.0036 13.5537 10.0036H14.1808C14.2203 10.0036 14.2487 10.0354 14.2487 10.0747V15.0992Z" fill="white"/>
</g>
<defs>
<clipPath id="clip0_3076_7192">
<rect width="40.7936" height="28.4319" fill="white" transform="translate(0.5)"/>
</clipPath>
</defs>
</svg>
