<svg width="57" height="56" viewBox="0 0 57 56" fill="none" xmlns="http://www.w3.org/2000/svg">
<g id="icon">
<rect x="0.5" width="56" height="56" rx="28" fill="#161616"/>
<rect x="1.5" y="1" width="54" height="54" rx="27" stroke="white" stroke-opacity="0.1" stroke-width="2"/>
<g id="Group">
<g id="Vector">
<path d="M35.4078 34.9891C35.6026 33.3703 35.544 33.1341 36.7511 33.3953L37.0583 33.4227C37.9869 33.4645 39.2011 33.2736 39.9266 32.9432C41.4623 32.2322 42.373 31.044 40.8588 31.3566C37.4049 32.0676 37.1539 30.8997 37.1539 30.8997C40.8026 25.4956 42.3288 18.6362 41.0106 16.9577C37.4204 12.3768 31.2045 14.5432 31.1005 14.6005L31.0671 14.6065C30.3858 14.4633 29.6329 14.3798 28.7605 14.3679C27.1972 14.344 26.0117 14.777 25.1105 15.4582C25.1105 15.4582 14.0233 10.8988 14.5384 21.1927C14.6484 23.3829 17.6816 37.7746 21.3028 33.4204C22.6283 31.829 23.907 30.4845 23.907 30.4845C24.5405 30.9056 25.3018 31.1204 26.0989 31.0428L26.1611 30.9903C26.1427 31.1965 26.1511 31.4042 26.1862 31.6083C25.254 32.6485 25.5288 32.8311 23.6644 33.214C21.7785 33.6017 22.8876 34.2924 23.6095 34.4737C24.4867 34.6932 26.516 35.0034 27.888 33.0875L27.833 33.3058C28.1988 33.5981 28.1737 35.4054 28.2274 36.6962C28.2812 37.9869 28.3661 39.193 28.6302 39.9028C28.8943 40.6126 29.2039 42.4438 31.6539 41.9308C33.7011 41.493 35.2668 40.8619 35.4102 34.9998" fill="black"/>
<path d="M35.4078 34.9891C35.6026 33.3703 35.544 33.1341 36.7511 33.3953L37.0583 33.4227C37.9869 33.4645 39.2011 33.2736 39.9266 32.9432C41.4623 32.2322 42.373 31.044 40.8588 31.3566C37.4049 32.0676 37.1539 30.8997 37.1539 30.8997C40.8026 25.4956 42.3288 18.6362 41.0106 16.9577C37.4204 12.3768 31.2045 14.5432 31.1005 14.6005L31.0671 14.6065C30.3858 14.4633 29.6329 14.3798 28.7605 14.3679C27.1972 14.344 26.0117 14.777 25.1105 15.4582C25.1105 15.4582 14.0233 10.8988 14.5384 21.1927C14.6484 23.3829 17.6816 37.7746 21.3028 33.4204C22.6283 31.829 23.907 30.4845 23.907 30.4845C24.5405 30.9056 25.3018 31.1204 26.0989 31.0428L26.1611 30.9903C26.1427 31.1965 26.1511 31.4042 26.1862 31.6083C25.254 32.6485 25.5288 32.8311 23.6644 33.214C21.7785 33.6017 22.8876 34.2924 23.6095 34.4737C24.4867 34.6932 26.516 35.0034 27.888 33.0875L27.833 33.3058C28.1988 33.5981 28.1737 35.4054 28.2274 36.6962C28.2812 37.9869 28.3661 39.193 28.6302 39.9028C28.8943 40.6126 29.2039 42.4438 31.6539 41.9308C33.7011 41.493 35.2668 40.8619 35.4102 34.9998" stroke="black" stroke-width="4.47297"/>
</g>
<path id="Vector_2" d="M40.8477 31.3698C37.3938 32.0808 37.1428 30.9129 37.1428 30.9129C40.7915 25.5089 42.3177 18.6494 41.0007 16.971C37.4105 12.3901 31.1946 14.5576 31.0906 14.6137L31.0572 14.6197C30.298 14.4676 29.5261 14.3873 28.7518 14.3799C27.1885 14.356 26.003 14.7891 25.1018 15.4702C25.1018 15.4702 14.0134 10.9108 14.5297 21.2047C14.6396 23.395 17.6729 37.7866 21.2941 33.4324C22.6279 31.8315 23.9067 30.487 23.9067 30.487C24.5401 30.9081 25.3014 31.1228 26.0986 31.0453L26.1607 30.9928C26.1425 31.199 26.1509 31.4067 26.1858 31.6108C25.2536 32.651 25.5285 32.8335 23.6641 33.2165C21.7782 33.6042 22.8872 34.2949 23.6091 34.4762C24.4863 34.6957 26.5157 35.0059 27.8877 33.09L27.8327 33.3083C28.1984 33.6006 28.4542 35.2087 28.4111 36.6665C28.3681 38.1242 28.3394 39.1239 28.6263 39.9065C28.9131 40.6891 29.1999 42.4475 31.65 41.9345C33.6972 41.4967 34.7573 40.3598 34.9067 38.4678C35.0119 37.1222 35.2485 37.3202 35.2652 36.1177L35.4564 35.5475C35.6752 33.7223 35.4923 33.1341 36.7532 33.4085L37.0603 33.436C37.9889 33.4777 39.2044 33.2868 39.9167 32.9564C41.4524 32.2454 42.3619 31.0572 40.8477 31.3698Z" fill="#336791"/>
<g id="Group_2">
<g id="Group_3">
<path id="Vector_3" d="M28.0344 32.4041C27.9388 35.7993 28.0583 39.2182 28.3906 40.039C28.7228 40.8597 29.4363 42.4845 31.8875 41.962C33.9348 41.5242 34.6805 40.676 35.0032 38.8043L35.7597 32.8193M25.0968 15.3844C25.0968 15.3844 14.0012 10.856 14.5175 21.1499C14.6274 23.3402 17.6607 37.7318 21.2819 33.3776C22.6037 31.7874 23.7989 30.5431 23.7989 30.5431M31.0892 14.5577C30.7067 14.677 37.2608 12.1659 40.9872 16.9174C42.3019 18.5958 40.7781 25.4552 37.1294 30.8593" stroke="white" stroke-width="1.4903" stroke-linecap="round" stroke-linejoin="round"/>
<path id="Vector_4" d="M37.1308 30.8581C37.1308 30.8581 37.3698 32.0272 40.8357 31.3138C42.3499 31.0012 41.438 32.1894 39.9035 32.9004C38.6438 33.4849 35.8185 33.6341 35.7719 32.8288C35.6524 30.7471 37.2586 31.3794 37.1427 30.8581C37.0375 30.3881 36.3181 29.9276 35.8448 28.7776C35.4301 27.7755 30.156 20.081 37.3076 21.2227C37.5706 21.169 35.4432 14.4229 28.7505 14.3251C22.0578 14.2273 22.2693 22.5385 22.2693 22.5385" stroke="white" stroke-width="1.4903" stroke-linecap="round" stroke-linejoin="bevel"/>
</g>
<g id="Group_4">
<path id="Vector_5" d="M26.1618 31.5705C25.2296 32.6108 25.5045 32.7933 23.6401 33.1762C21.7541 33.5639 22.8632 34.2546 23.5851 34.436C24.4623 34.6555 26.4916 34.9656 27.8637 33.0486C28.282 32.464 27.8613 31.5335 27.2876 31.2973C27.0103 31.1828 26.6398 31.0397 26.1642 31.5717L26.1618 31.5705Z" stroke="white" stroke-width="1.4903" stroke-linejoin="round"/>
<path id="Vector_6" d="M26.101 31.5551C26.0053 30.9431 26.3017 30.2166 26.6184 29.3649C27.0941 28.0884 28.1912 26.812 27.314 22.7595C26.6603 19.7414 22.2706 22.1309 22.2706 22.54C22.2706 22.9492 22.4689 24.6158 22.1988 26.5543C21.8439 29.0857 23.8123 31.2259 26.0782 31.0075" stroke="white" stroke-width="1.4903" stroke-linecap="round" stroke-linejoin="round"/>
</g>
</g>
<g id="Group_5">
<path id="Vector_7" d="M25.0562 22.4768C25.0359 22.6163 25.3132 22.9897 25.6729 23.0398C26.0326 23.0899 26.3398 22.7989 26.3601 22.6581C26.3804 22.5173 26.1032 22.3646 25.7434 22.3145C25.3837 22.2644 25.0742 22.3384 25.0562 22.4768Z" fill="white" stroke="white" stroke-width="0.497459"/>
<path id="Vector_8" d="M36.0088 22.1916C36.0279 22.3312 35.7519 22.7046 35.3921 22.7547C35.0324 22.8048 34.7229 22.5137 34.7049 22.3729C34.687 22.2322 34.9619 22.0795 35.3216 22.0294C35.6814 21.9793 35.9909 22.0532 36.0088 22.1916Z" fill="white" stroke="white" stroke-width="0.247689"/>
</g>
<path id="Vector_9" d="M37.2939 21.2227C37.3536 22.3202 37.0572 23.0658 37.019 24.2336C36.964 25.93 37.8293 27.8721 36.5254 29.8166" stroke="white" stroke-width="1.4903" stroke-linecap="round" stroke-linejoin="round"/>
</g>
</g>
</svg>
