<svg width="57" height="56" viewBox="0 0 57 56" fill="none" xmlns="http://www.w3.org/2000/svg">
<g id="icon">
<rect x="0.5" width="56" height="56" rx="28" fill="#161616"/>
<rect x="1.5" y="1" width="54" height="54" rx="27" stroke="white" stroke-opacity="0.1" stroke-width="2"/>
<g id="Group 48095934">
<path id="Vector" d="M21.3878 23.2123C21.3878 23.6213 21.4309 23.9521 21.5063 24.1953C21.5926 24.4385 21.6997 24.7036 21.8506 24.9906C21.9045 25.0789 21.926 25.1673 21.926 25.2447C21.926 25.355 21.8614 25.4653 21.7219 25.5762L21.0442 26.04C20.9472 26.1064 20.8509 26.1393 20.7646 26.1393C20.6568 26.1393 20.5497 26.0838 20.4419 25.9845C20.291 25.8187 20.1624 25.642 20.0546 25.4653C19.9468 25.2776 19.8397 25.068 19.7211 24.8138C18.8824 25.8297 17.8281 26.338 16.5589 26.338C15.6555 26.338 14.9347 26.0729 14.4079 25.5427C13.8811 25.0125 13.6123 24.3056 13.6123 23.4219C13.6123 22.4835 13.935 21.7211 14.5911 21.1471C15.2473 20.573 16.1183 20.2853 17.2259 20.2853C17.5917 20.2853 17.9682 20.3182 18.3657 20.3737C18.7632 20.4292 19.1721 20.5175 19.6026 20.6169V19.8106C19.6026 18.9715 19.4308 18.3858 19.0973 18.0433C18.7531 17.7008 18.1724 17.5351 17.3444 17.5351C16.9678 17.5351 16.5812 17.5789 16.183 17.6789C15.7849 17.7782 15.3982 17.8995 15.0216 18.0543C14.8498 18.1317 14.7205 18.1755 14.645 18.1982C14.5696 18.2201 14.5157 18.231 14.4733 18.231C14.3224 18.231 14.2476 18.1207 14.2476 17.8885V17.3474C14.2476 17.1707 14.2691 17.0385 14.323 16.961C14.3769 16.8836 14.4739 16.8062 14.6242 16.7288C15.0007 16.5302 15.4521 16.3644 15.9796 16.2315C16.5064 16.0877 17.0655 16.0219 17.657 16.0219C18.937 16.0219 19.8727 16.3199 20.475 16.9165C21.0664 17.5132 21.3676 18.4187 21.3676 19.6332V23.2116L21.3878 23.2123ZM17.0211 24.8906C17.3761 24.8906 17.7419 24.8241 18.1286 24.6919C18.5159 24.5597 18.8602 24.3165 19.1505 23.985C19.3223 23.7754 19.4517 23.5432 19.5163 23.2781C19.581 23.013 19.6241 22.6924 19.6241 22.317V21.8533C19.3122 21.7759 18.9787 21.7094 18.6345 21.6656C18.2903 21.6218 17.9568 21.5992 17.6233 21.5992C16.9025 21.5992 16.3757 21.743 16.0207 22.041C15.6656 22.3389 15.4939 22.7589 15.4939 23.311C15.4939 23.8302 15.6232 24.2165 15.892 24.4816C16.15 24.7584 16.5266 24.8906 17.0211 24.8906ZM25.6575 26.0838C25.4641 26.0838 25.3348 26.0509 25.2486 25.9735C25.1623 25.9071 25.0876 25.753 25.0229 25.5427L22.4953 17.0056C22.4306 16.785 22.3983 16.6412 22.3983 16.5638C22.3983 16.387 22.4845 16.2877 22.6563 16.2877H23.7106C23.9147 16.2877 24.0548 16.3206 24.1303 16.398C24.2165 16.4644 24.2805 16.6186 24.3452 16.8288L26.152 24.1405L27.8294 16.8288C27.8833 16.6083 27.948 16.4644 28.0335 16.398C28.1197 16.3315 28.27 16.2877 28.464 16.2877H29.3243C29.5284 16.2877 29.6685 16.3206 29.7547 16.398C29.841 16.4644 29.9157 16.6186 29.9589 16.8288L31.6578 24.2289L33.5185 16.8288C33.5832 16.6083 33.6586 16.4644 33.7334 16.398C33.8196 16.3315 33.9591 16.2877 34.1531 16.2877H35.1535C35.3253 16.2877 35.4223 16.3761 35.4223 16.5638C35.4223 16.6192 35.4115 16.674 35.4007 16.7405C35.39 16.8069 35.3684 16.8953 35.3253 17.0165L32.7337 25.5536C32.669 25.7742 32.5936 25.918 32.508 25.9845C32.4225 26.0509 32.2823 26.0948 32.0991 26.0948H31.1741C30.97 26.0948 30.8299 26.0619 30.7437 25.9845C30.6574 25.9071 30.5827 25.7639 30.5396 25.5427L28.8729 18.4187L27.217 25.5317C27.1631 25.7523 27.0985 25.8961 27.0129 25.9735C26.9267 26.0509 26.7764 26.0838 26.5824 26.0838H25.6575ZM39.4771 26.3818C38.918 26.3818 38.3588 26.3153 37.8212 26.1831C37.2836 26.0509 36.8639 25.9071 36.5844 25.7413C36.4126 25.642 36.294 25.5317 36.2509 25.4324C36.2078 25.3331 36.1862 25.2228 36.1862 25.1235V24.5604C36.1862 24.3282 36.2725 24.2179 36.4335 24.2179C36.4981 24.2179 36.5628 24.2289 36.6268 24.2508C36.6915 24.2727 36.7878 24.3172 36.8956 24.3611C37.2614 24.5268 37.6589 24.659 38.0786 24.7474C38.509 24.8358 38.9281 24.8796 39.3585 24.8796C40.0362 24.8796 40.5631 24.7584 40.9289 24.5152C41.2947 24.272 41.488 23.9185 41.488 23.4658C41.488 23.1568 41.391 22.9027 41.1976 22.6924C41.0043 22.4828 40.6385 22.2951 40.1117 22.1184L38.5522 21.6211C37.7673 21.3669 37.1866 20.9916 36.8316 20.4943C36.4766 20.0086 36.294 19.4674 36.294 18.8927C36.294 18.429 36.391 18.0201 36.5844 17.6666C36.7777 17.3131 37.0364 17.0042 37.3584 16.761C37.6811 16.5069 38.0469 16.3192 38.4767 16.187C38.9072 16.0555 39.3585 16 39.8321 16C40.0686 16 40.3158 16.011 40.553 16.0438C40.8002 16.0767 41.0259 16.1212 41.2522 16.1651C41.4671 16.2206 41.6719 16.2754 41.8653 16.3418C42.0586 16.4083 42.2095 16.474 42.3173 16.5405C42.4682 16.6288 42.5753 16.7172 42.64 16.8165C42.7046 16.9049 42.737 17.0261 42.737 17.1809V17.7002C42.737 17.9324 42.6508 18.0536 42.4897 18.0536C42.4035 18.0536 42.2641 18.0098 42.0808 17.9214C41.4678 17.6344 40.7793 17.4905 40.016 17.4905C39.403 17.4905 38.9193 17.5899 38.5858 17.7995C38.2524 18.0091 38.0806 18.3297 38.0806 18.7825C38.0806 19.0914 38.1884 19.3565 38.4033 19.5668C38.6182 19.7764 39.0163 19.9867 39.5862 20.1744L41.1134 20.6717C41.8875 20.9258 42.4473 21.2793 42.7801 21.732C43.1129 22.1848 43.2746 22.7041 43.2746 23.2781C43.2746 23.7528 43.1776 24.1836 42.995 24.559C42.8017 24.9344 42.543 25.2659 42.2102 25.531C41.8767 25.8071 41.4786 26.0057 41.0164 26.1496C40.5307 26.3044 40.0255 26.3818 39.4771 26.3818Z" fill="white"/>
<path id="Vector_2" d="M41.3285 35.656C37.8396 38.3172 32.7703 39.73 28.4112 39.73C22.3029 39.73 16.7985 37.3975 12.6413 33.5204C12.3125 33.2141 12.6094 32.7977 13.002 33.0389C17.4987 35.7327 23.0449 37.3649 28.7825 37.3649C32.6534 37.3649 36.9063 36.5329 40.819 34.8239C41.403 34.5502 41.9012 35.2179 41.3285 35.656ZM42.7814 33.9477C42.3356 33.3561 39.8332 33.6631 38.6986 33.805C38.3591 33.8485 38.306 33.5422 38.6135 33.3119C40.6071 31.8665 43.8841 32.2822 44.2661 32.7645C44.6481 33.2576 44.1598 36.6415 42.2938 38.2622C42.0075 38.5142 41.7318 38.3824 41.8587 38.0543C42.2831 36.9703 43.2271 34.5277 42.7814 33.9477Z" fill="#FF9900"/>
</g>
</g>
</svg>
