<svg width="56" height="56" viewBox="0 0 56 56" fill="none" xmlns="http://www.w3.org/2000/svg">
<rect width="56" height="56" rx="28" fill="#1E1E1E"/>
<rect x="0.5" y="0.5" width="55" height="55" rx="27.5" stroke="white" stroke-opacity="0.1"/>
<path fill-rule="evenodd" clip-rule="evenodd" d="M28.4489 22.7775C27.6708 22.6832 26.8555 22.8315 26.1253 23.2531C24.3319 24.2885 23.7174 26.5816 24.7528 28.375C25.3113 29.3422 26.2356 29.9665 27.25 30.174V32.5002C27.25 32.9145 27.5858 33.2502 28 33.2502C28.4142 33.2502 28.75 32.9145 28.75 32.5002V30.175C29.1356 30.0963 29.5152 29.955 29.8748 29.7474C30.605 29.3258 31.141 28.6939 31.4484 27.9728C31.8943 26.927 31.8608 25.6883 31.2472 24.6255C30.6336 23.5627 29.5776 22.9143 28.4489 22.7775ZM26.8753 24.5521C27.3146 24.2985 27.8017 24.2101 28.2684 24.2666C28.9489 24.3491 29.5804 24.7386 29.9481 25.3755C30.3159 26.0124 30.3374 26.754 30.0686 27.3846C29.8842 27.817 29.5641 28.1947 29.1248 28.4484C28.0488 29.0695 26.6731 28.7009 26.0519 27.625C25.4307 26.5491 25.7993 25.1733 26.8753 24.5521Z" fill="#E0E0E0"/>
<path fill-rule="evenodd" clip-rule="evenodd" d="M28 17.25C27.0625 17.25 26.1673 17.5566 24.7234 18.0511L23.9959 18.3001C22.5146 18.8072 21.3714 19.1985 20.553 19.531C20.1408 19.6985 19.7864 19.8607 19.501 20.0264C19.2263 20.1859 18.9508 20.3848 18.7636 20.6515C18.5786 20.9152 18.4829 21.2392 18.4228 21.5512C18.3603 21.8756 18.3226 22.2646 18.2983 22.7114C18.25 23.5984 18.25 24.8135 18.25 26.3896V27.9914C18.25 34.0924 22.858 37.0175 25.5983 38.2146L25.6254 38.2264C25.9652 38.3749 26.2846 38.5144 26.6516 38.6084C27.0391 38.7076 27.4507 38.75 28 38.75C28.5493 38.75 28.9609 38.7076 29.3484 38.6084C29.7154 38.5144 30.0348 38.3749 30.3745 38.2264L30.4017 38.2146C33.142 37.0175 37.75 34.0924 37.75 27.9914V26.3898C37.75 24.8136 37.75 23.5984 37.7017 22.7114C37.6774 22.2646 37.6397 21.8756 37.5772 21.5512C37.5171 21.2392 37.4214 20.9152 37.2364 20.6515C37.0492 20.3848 36.7737 20.1859 36.499 20.0264C36.2136 19.8607 35.8592 19.6985 35.447 19.531C34.6286 19.1985 33.4854 18.8072 32.004 18.3001L31.2766 18.0511C29.8327 17.5566 28.9375 17.25 28 17.25ZM25.0806 19.5143C26.6951 18.9616 27.3423 18.75 28 18.75C28.6577 18.75 29.3049 18.9616 30.9194 19.5143L31.4922 19.7104C33.0048 20.2281 34.1079 20.606 34.8824 20.9207C35.269 21.0777 35.5491 21.2093 35.7457 21.3235C35.8428 21.3799 35.9097 21.4264 35.9543 21.4627C35.9922 21.4935 36.0066 21.5109 36.0087 21.5135C36.0106 21.5166 36.0231 21.5374 36.0406 21.5865C36.0606 21.6426 36.0827 21.7231 36.1043 21.8351C36.148 22.0617 36.1811 22.373 36.2039 22.7929C36.2497 23.6341 36.25 24.8083 36.25 26.4167V27.9914C36.25 33.1665 32.3801 35.7135 29.8012 36.84C29.4297 37.0023 29.2152 37.0941 28.9764 37.1552C28.7483 37.2136 28.47 37.25 28 37.25C27.53 37.25 27.2517 37.2136 27.0236 37.1552C26.7848 37.0941 26.5703 37.0023 26.1988 36.84C23.6199 35.7135 19.75 33.1665 19.75 27.9914V26.4167C19.75 24.8083 19.7503 23.6341 19.7961 22.7929C19.8189 22.373 19.852 22.0617 19.8957 21.8351C19.9173 21.7231 19.9394 21.6426 19.9594 21.5865C19.9769 21.5374 19.9894 21.5166 19.9913 21.5135C19.9934 21.5109 20.0078 21.4935 20.0457 21.4627C20.0903 21.4264 20.1572 21.3799 20.2543 21.3235C20.4509 21.2093 20.731 21.0777 21.1176 20.9207C21.8921 20.606 22.9952 20.2281 24.5078 19.7104L25.0806 19.5143Z" fill="#E0E0E0"/>
<path fill-rule="evenodd" clip-rule="evenodd" d="M28.4489 22.7775C27.6708 22.6832 26.8555 22.8315 26.1253 23.2531C24.3319 24.2885 23.7174 26.5816 24.7528 28.375C25.3113 29.3422 26.2356 29.9665 27.25 30.174V32.5002C27.25 32.9145 27.5858 33.2502 28 33.2502C28.4142 33.2502 28.75 32.9145 28.75 32.5002V30.175C29.1356 30.0963 29.5152 29.955 29.8748 29.7474C30.605 29.3258 31.141 28.6939 31.4484 27.9728C31.8943 26.927 31.8608 25.6883 31.2472 24.6255C30.6336 23.5627 29.5776 22.9143 28.4489 22.7775ZM26.8753 24.5521C27.3146 24.2985 27.8017 24.2101 28.2684 24.2666C28.9489 24.3491 29.5804 24.7386 29.9481 25.3755C30.3159 26.0124 30.3374 26.754 30.0686 27.3846C29.8842 27.817 29.5641 28.1947 29.1248 28.4484C28.0488 29.0695 26.6731 28.7009 26.0519 27.625C25.4307 26.5491 25.7993 25.1733 26.8753 24.5521Z" stroke="#E0E0E0"/>
<path fill-rule="evenodd" clip-rule="evenodd" d="M28 17.25C27.0625 17.25 26.1673 17.5566 24.7234 18.0511L23.9959 18.3001C22.5146 18.8072 21.3714 19.1985 20.553 19.531C20.1408 19.6985 19.7864 19.8607 19.501 20.0264C19.2263 20.1859 18.9508 20.3848 18.7636 20.6515C18.5786 20.9152 18.4829 21.2392 18.4228 21.5512C18.3603 21.8756 18.3226 22.2646 18.2983 22.7114C18.25 23.5984 18.25 24.8135 18.25 26.3896V27.9914C18.25 34.0924 22.858 37.0175 25.5983 38.2146L25.6254 38.2264C25.9652 38.3749 26.2846 38.5144 26.6516 38.6084C27.0391 38.7076 27.4507 38.75 28 38.75C28.5493 38.75 28.9609 38.7076 29.3484 38.6084C29.7154 38.5144 30.0348 38.3749 30.3745 38.2264L30.4017 38.2146C33.142 37.0175 37.75 34.0924 37.75 27.9914V26.3898C37.75 24.8136 37.75 23.5984 37.7017 22.7114C37.6774 22.2646 37.6397 21.8756 37.5772 21.5512C37.5171 21.2392 37.4214 20.9152 37.2364 20.6515C37.0492 20.3848 36.7737 20.1859 36.499 20.0264C36.2136 19.8607 35.8592 19.6985 35.447 19.531C34.6286 19.1985 33.4854 18.8072 32.004 18.3001L31.2766 18.0511C29.8327 17.5566 28.9375 17.25 28 17.25ZM25.0806 19.5143C26.6951 18.9616 27.3423 18.75 28 18.75C28.6577 18.75 29.3049 18.9616 30.9194 19.5143L31.4922 19.7104C33.0048 20.2281 34.1079 20.606 34.8824 20.9207C35.269 21.0777 35.5491 21.2093 35.7457 21.3235C35.8428 21.3799 35.9097 21.4264 35.9543 21.4627C35.9922 21.4935 36.0066 21.5109 36.0087 21.5135C36.0106 21.5166 36.0231 21.5374 36.0406 21.5865C36.0606 21.6426 36.0827 21.7231 36.1043 21.8351C36.148 22.0617 36.1811 22.373 36.2039 22.7929C36.2497 23.6341 36.25 24.8083 36.25 26.4167V27.9914C36.25 33.1665 32.3801 35.7135 29.8012 36.84C29.4297 37.0023 29.2152 37.0941 28.9764 37.1552C28.7483 37.2136 28.47 37.25 28 37.25C27.53 37.25 27.2517 37.2136 27.0236 37.1552C26.7848 37.0941 26.5703 37.0023 26.1988 36.84C23.6199 35.7135 19.75 33.1665 19.75 27.9914V26.4167C19.75 24.8083 19.7503 23.6341 19.7961 22.7929C19.8189 22.373 19.852 22.0617 19.8957 21.8351C19.9173 21.7231 19.9394 21.6426 19.9594 21.5865C19.9769 21.5374 19.9894 21.5166 19.9913 21.5135C19.9934 21.5109 20.0078 21.4935 20.0457 21.4627C20.0903 21.4264 20.1572 21.3799 20.2543 21.3235C20.4509 21.2093 20.731 21.0777 21.1176 20.9207C21.8921 20.606 22.9952 20.2281 24.5078 19.7104L25.0806 19.5143Z" stroke="#E0E0E0"/>
</svg>
