<svg xmlns="http://www.w3.org/2000/svg" width="151" height="39.435" viewBox="0 0 151 39.435">
    <g data-name="Artwork 22">
        <g data-name="Group 69">
            <g data-name="Group 66">
                <path data-name="Path 47" d="M193.069 43.142a7.2 7.2 0 0 0-2.454.424v3.712a3.95 3.95 0 0 1 1.8-.43 4.426 4.426 0 0 1 0 8.841 3.946 3.946 0 0 1-1.8-.43 4.429 4.429 0 0 1-2.4-3.99V38.362a.81.81 0 0 0-.81-.81h-2.593a.8.8 0 0 0-.8.8v19.924a.8.8 0 0 0 .8.8h2.588a.812.812 0 0 0 .81-.809v-.687a7.456 7.456 0 0 0 2.4 1.378 7.2 7.2 0 0 0 2.454.424 8.129 8.129 0 0 0 0-16.24z" transform="translate(-140.016 -28.575)" style="fill:#fff"/>
                <path data-name="Path 48" d="M269.148 36.083a2.328 2.328 0 0 0-1.689.67 2.13 2.13 0 0 0-.7 1.6 2.185 2.185 0 0 0 .7 1.644 2.317 2.317 0 0 0 1.689.658A2.241 2.241 0 0 0 270.8 40a2.214 2.214 0 0 0 .683-1.644 2.157 2.157 0 0 0-.683-1.6 2.252 2.252 0 0 0-1.652-.673z" transform="translate(-202.983 -27.457)" style="fill:#fff"/>
                <path data-name="Path 49" d="M271.257 62.244H268.7a.8.8 0 0 0-.86.854v13.919a.855.855 0 0 0 .228.62.83.83 0 0 0 .632.234h2.555a.8.8 0 0 0 .853-.854V63.1a.81.81 0 0 0-.234-.62.833.833 0 0 0-.617-.236z" transform="translate(-203.808 -47.364)" style="fill:#fff"/>
                <path data-name="Path 50" d="M306.125 47.776h-2.283v-3.333a.77.77 0 0 0-.848-.847h-2.5a.771.771 0 0 0-.854.847v3.333h-1.05a.773.773 0 0 0-.854.854v2.017a.878.878 0 0 0 .222.626.858.858 0 0 0 .632.221h1.05v8.423a4.1 4.1 0 0 0 .62 2.447 3.2 3.2 0 0 0 1.71 1.136 11.5 11.5 0 0 0 2.991.31c.468 0 .822-.006 1.075-.025a.858.858 0 0 0 .614-.272.934.934 0 0 0 .215-.633V61c0-.544-.3-.828-.886-.828h-.2a1.724 1.724 0 0 1-1.543-.582 3.233 3.233 0 0 1-.392-1.752v-6.344h2.283a.77.77 0 0 0 .847-.847V48.63a.859.859 0 0 0-.221-.633.88.88 0 0 0-.628-.221z" transform="translate(-226.553 -33.174)" style="fill:#fff"/>
                <path data-name="Path 51" d="M439.657 62.377h-12.939a.83.83 0 0 0-.632.234.808.808 0 0 0-.228.62v1.96a.813.813 0 0 0 .228.626.855.855 0 0 0 .632.234h6.476l-7.759 10.89a.922.922 0 0 0-.2.544.4.4 0 0 0 .171.348.736.736 0 0 0 .455.139H439a.84.84 0 0 0 .632-.234.791.791 0 0 0 .209-.437.863.863 0 0 0 .013-.183v-1.992a.875.875 0 0 0-.221-.632.887.887 0 0 0-.632-.228h-6.792L440 63.408a1.189 1.189 0 0 0 .184-.417.453.453 0 0 0 .013-.127.481.481 0 0 0-.139-.36.638.638 0 0 0-.401-.127z" transform="translate(-323.571 -47.465)" style="fill:#fff"/>
                <path data-name="Path 52" d="M507.48 62.377h-12.952a.83.83 0 0 0-.619.234.754.754 0 0 0-.215.437 1.628 1.628 0 0 0-.006.183v1.96a.81.81 0 0 0 .221.626.856.856 0 0 0 .619.234h6.5l-7.766 10.89a1.123 1.123 0 0 0-.2.4 1.1 1.1 0 0 0-.006.139.4.4 0 0 0 .171.348.717.717 0 0 0 .462.139h13.135a.787.787 0 0 0 .853-.854v-1.987a.874.874 0 0 0-.221-.632.909.909 0 0 0-.632-.228h-6.8l7.8-10.858a1.039 1.039 0 0 0 .2-.544.481.481 0 0 0-.139-.36.625.625 0 0 0-.405-.127z" transform="translate(-375.179 -47.465)" style="fill:#fff"/>
                <path data-name="Path 53" d="M361.064 61.212h-2.593a.812.812 0 0 0-.81.81v.689a7.461 7.461 0 0 0-2.4-1.378 7.2 7.2 0 0 0-2.454-.424 8.129 8.129 0 0 0 0 16.24 7.19 7.19 0 0 0 2.454-.424v-3.712a3.943 3.943 0 0 1-1.8.43 4.426 4.426 0 0 1 0-8.841 3.944 3.944 0 0 1 1.8.43 4.429 4.429 0 0 1 2.4 3.991v7.032a.809.809 0 0 0 .81.81h2.593a.8.8 0 0 0 .8-.8V62.016a.8.8 0 0 0-.8-.804z" transform="translate(-262.564 -46.348)" style="fill:#fff"/>
                <path data-name="Path 54" d="M577.3 61.212h-2.59a.812.812 0 0 0-.81.81v.689a7.46 7.46 0 0 0-2.4-1.378 7.2 7.2 0 0 0-2.454-.424 8.129 8.129 0 0 0 0 16.24 7.189 7.189 0 0 0 2.454-.424v-3.712a3.941 3.941 0 0 1-1.8.43 4.426 4.426 0 0 1 0-8.841 3.943 3.943 0 0 1 1.8.43 4.429 4.429 0 0 1 2.4 3.991v7.032a.81.81 0 0 0 .81.81h2.59a.8.8 0 0 0 .8-.8V62.016a.8.8 0 0 0-.8-.804z" transform="translate(-427.106 -46.348)" style="fill:#fff"/>
            </g>
            <g data-name="Group 68">
                <path data-name="Path 55" d="m33.158 20.374-1.018-.72 1.018-.72A6.911 6.911 0 0 0 32.6 7.3l-.089-.055a6.923 6.923 0 0 0-6.26-.332l-1.107.493-.128-1.206A6.941 6.941 0 0 0 21.59.939l-.031-.014A6.862 6.862 0 0 0 18.109 0a6.943 6.943 0 0 0-3.584 1l-.175.1a6.966 6.966 0 0 0-3.279 5.112l-.144 1.192-1.093-.483a6.912 6.912 0 0 0-6.27.325l-.11.062A6.931 6.931 0 0 0 0 13.295v.123a6.932 6.932 0 0 0 2.919 5.64l1.014.72-1.014.72a6.91 6.91 0 0 0 .542 11.629l.1.062a6.95 6.95 0 0 0 6.267.329l1.107-.49.127 1.206a6.943 6.943 0 0 0 3.409 5.253l.045.024a6.91 6.91 0 0 0 7.041-.079l.171-.1a6.95 6.95 0 0 0 3.279-5.112l.14-1.192 1.1.49a6.936 6.936 0 0 0 6.28-.332l.1-.058a6.925 6.925 0 0 0 3.454-5.982v-.127a6.938 6.938 0 0 0-2.923-5.645zm-.98 5.767a3.026 3.026 0 0 1-1.508 2.611l-.1.062a3.043 3.043 0 0 1-3.019 0l-2.806-1.624-3.584 2.073v3.159A3.031 3.031 0 0 1 19.709 35l-.175.106a3.022 3.022 0 0 1-3.07.034l-.038-.024a3.028 3.028 0 0 1-1.511-2.616v-3.238l-3.584-2.073-2.806 1.624a3.03 3.03 0 0 1-3.012 0l-.106-.065a3.012 3.012 0 0 1-.031-5.2L8.3 21.813l-.024-4.129-2.869-1.659A3.015 3.015 0 0 1 3.9 13.418v-.123a3.026 3.026 0 0 1 1.511-2.611l.1-.065a3.035 3.035 0 0 1 3.015 0l2.806 1.624 3.584-2.07V7.014a3.046 3.046 0 0 1 1.453-2.577l.175-.106a3.008 3.008 0 0 1 3.065-.031l.038.021a3.02 3.02 0 0 1 1.511 2.615v3.241l3.584 2.07 2.806-1.624a3.042 3.042 0 0 1 3.019 0l.1.065a3.016 3.016 0 0 1 .031 5.2l-2.93 1.73.024 4.129 2.875 1.658a3.016 3.016 0 0 1 1.508 2.607z" style="fill:#10f48b"/>
                <g data-name="Group 67">
                    <path data-name="Path 56" d="m62.714 51.792-5.832 3.363-5.832-3.363 5.832-3.368z" transform="translate(-38.846 -36.847)" style="fill:#10f48b"/>
                    <path data-name="Path 57" d="M51.8 74.676v6.736l-5.832-3.368v-6.731z" transform="translate(-34.979 -54.264)" style="fill:#10f48b"/>
                    <path data-name="Path 58" d="M86.358 71.313v6.731l-5.832 3.368v-6.736z" transform="translate(-61.274 -54.264)" style="fill:#10f48b"/>
                </g>
            </g>
        </g>
    </g>
</svg>
